ISO-10303-21;
HEADER;
/* Generated by software containing ST-Developer
 * from STEP Tools, Inc. (www.steptools.com) 
 */

FILE_DESCRIPTION(
/* description */ (''),
/* implementation_level */ '2;1');

FILE_NAME(
/* name */ 'My simple macropad top of case.step',
/* time_stamp */ '2026-09-09T15:18:08+01:00',
/* author */ (''),
/* organization */ (''),
/* preprocessor_version */ 'ST-DEVELOPER v20.2',
/* originating_system */ 'Autodesk Translation Framework v15.15.0.0',
/* authorisation */ '');

FILE_SCHEMA (('AUTOMOTIVE_DESIGN { 1 0 10303 214 3 1 1 }'));
ENDSEC;

DATA;
#10=MECHANICAL_DESIGN_GEOMETRIC_PRESENTATION_REPRESENTATION('',(#13),#1466);
#11=SHAPE_REPRESENTATION_RELATIONSHIP('SRR','None',#1473,#12);
#12=ADVANCED_BREP_SHAPE_REPRESENTATION('',(#14),#1465);
#13=STYLED_ITEM('',(#1482),#14);
#14=MANIFOLD_SOLID_BREP('Body2',#926);
#15=FACE_BOUND('',#141,.T.);
#16=FACE_BOUND('',#142,.T.);
#17=FACE_BOUND('',#143,.T.);
#18=FACE_BOUND('',#144,.T.);
#19=FACE_BOUND('',#145,.T.);
#20=FACE_BOUND('',#146,.T.);
#21=FACE_BOUND('',#147,.T.);
#22=FACE_BOUND('',#148,.T.);
#23=FACE_BOUND('',#149,.T.);
#24=FACE_BOUND('',#150,.T.);
#25=FACE_BOUND('',#151,.T.);
#26=FACE_BOUND('',#152,.T.);
#27=FACE_BOUND('',#153,.T.);
#28=FACE_BOUND('',#155,.T.);
#29=FACE_BOUND('',#156,.T.);
#30=FACE_BOUND('',#157,.T.);
#31=FACE_BOUND('',#158,.T.);
#32=FACE_BOUND('',#159,.T.);
#33=FACE_BOUND('',#160,.T.);
#34=FACE_BOUND('',#161,.T.);
#35=FACE_BOUND('',#162,.T.);
#36=FACE_BOUND('',#163,.T.);
#37=FACE_BOUND('',#164,.T.);
#38=FACE_BOUND('',#165,.T.);
#39=FACE_BOUND('',#166,.T.);
#40=FACE_BOUND('',#167,.T.);
#41=CIRCLE('',#965,3.6);
#42=CIRCLE('',#966,3.6);
#43=CIRCLE('',#976,1.45);
#44=CIRCLE('',#977,1.45);
#45=CIRCLE('',#979,1.45);
#46=CIRCLE('',#980,1.45);
#47=CIRCLE('',#982,1.45);
#48=CIRCLE('',#983,1.45);
#49=CIRCLE('',#985,1.45);
#50=CIRCLE('',#986,1.45);
#51=CYLINDRICAL_SURFACE('',#964,3.6);
#52=CYLINDRICAL_SURFACE('',#975,1.45);
#53=CYLINDRICAL_SURFACE('',#978,1.45);
#54=CYLINDRICAL_SURFACE('',#981,1.45);
#55=CYLINDRICAL_SURFACE('',#984,1.45);
#56=FACE_OUTER_BOUND('',#99,.T.);
#57=FACE_OUTER_BOUND('',#100,.T.);
#58=FACE_OUTER_BOUND('',#101,.T.);
#59=FACE_OUTER_BOUND('',#102,.T.);
#60=FACE_OUTER_BOUND('',#103,.T.);
#61=FACE_OUTER_BOUND('',#104,.T.);
#62=FACE_OUTER_BOUND('',#105,.T.);
#63=FACE_OUTER_BOUND('',#106,.T.);
#64=FACE_OUTER_BOUND('',#107,.T.);
#65=FACE_OUTER_BOUND('',#108,.T.);
#66=FACE_OUTER_BOUND('',#109,.T.);
#67=FACE_OUTER_BOUND('',#110,.T.);
#68=FACE_OUTER_BOUND('',#111,.T.);
#69=FACE_OUTER_BOUND('',#112,.T.);
#70=FACE_OUTER_BOUND('',#113,.T.);
#71=FACE_OUTER_BOUND('',#114,.T.);
#72=FACE_OUTER_BOUND('',#115,.T.);
#73=FACE_OUTER_BOUND('',#116,.T.);
#74=FACE_OUTER_BOUND('',#117,.T.);
#75=FACE_OUTER_BOUND('',#118,.T.);
#76=FACE_OUTER_BOUND('',#119,.T.);
#77=FACE_OUTER_BOUND('',#120,.T.);
#78=FACE_OUTER_BOUND('',#121,.T.);
#79=FACE_OUTER_BOUND('',#122,.T.);
#80=FACE_OUTER_BOUND('',#123,.T.);
#81=FACE_OUTER_BOUND('',#124,.T.);
#82=FACE_OUTER_BOUND('',#125,.T.);
#83=FACE_OUTER_BOUND('',#126,.T.);
#84=FACE_OUTER_BOUND('',#127,.T.);
#85=FACE_OUTER_BOUND('',#128,.T.);
#86=FACE_OUTER_BOUND('',#129,.T.);
#87=FACE_OUTER_BOUND('',#130,.T.);
#88=FACE_OUTER_BOUND('',#131,.T.);
#89=FACE_OUTER_BOUND('',#132,.T.);
#90=FACE_OUTER_BOUND('',#133,.T.);
#91=FACE_OUTER_BOUND('',#134,.T.);
#92=FACE_OUTER_BOUND('',#135,.T.);
#93=FACE_OUTER_BOUND('',#136,.T.);
#94=FACE_OUTER_BOUND('',#137,.T.);
#95=FACE_OUTER_BOUND('',#138,.T.);
#96=FACE_OUTER_BOUND('',#139,.T.);
#97=FACE_OUTER_BOUND('',#140,.T.);
#98=FACE_OUTER_BOUND('',#154,.T.);
#99=EDGE_LOOP('',(#599,#600,#601,#602));
#100=EDGE_LOOP('',(#603,#604,#605,#606));
#101=EDGE_LOOP('',(#607,#608,#609,#610));
#102=EDGE_LOOP('',(#611,#612,#613,#614));
#103=EDGE_LOOP('',(#615,#616,#617,#618));
#104=EDGE_LOOP('',(#619,#620,#621,#622));
#105=EDGE_LOOP('',(#623,#624,#625,#626));
#106=EDGE_LOOP('',(#627,#628,#629,#630));
#107=EDGE_LOOP('',(#631,#632,#633,#634));
#108=EDGE_LOOP('',(#635,#636,#637,#638));
#109=EDGE_LOOP('',(#639,#640,#641,#642));
#110=EDGE_LOOP('',(#643,#644,#645,#646));
#111=EDGE_LOOP('',(#647,#648,#649,#650));
#112=EDGE_LOOP('',(#651,#652,#653,#654));
#113=EDGE_LOOP('',(#655,#656,#657,#658));
#114=EDGE_LOOP('',(#659,#660,#661,#662));
#115=EDGE_LOOP('',(#663,#664,#665,#666));
#116=EDGE_LOOP('',(#667,#668,#669,#670));
#117=EDGE_LOOP('',(#671,#672,#673,#674));
#118=EDGE_LOOP('',(#675,#676,#677,#678));
#119=EDGE_LOOP('',(#679,#680,#681,#682));
#120=EDGE_LOOP('',(#683,#684,#685,#686));
#121=EDGE_LOOP('',(#687,#688,#689,#690));
#122=EDGE_LOOP('',(#691,#692,#693,#694));
#123=EDGE_LOOP('',(#695,#696,#697,#698));
#124=EDGE_LOOP('',(#699,#700,#701,#702));
#125=EDGE_LOOP('',(#703,#704,#705,#706));
#126=EDGE_LOOP('',(#707,#708,#709,#710));
#127=EDGE_LOOP('',(#711,#712,#713,#714));
#128=EDGE_LOOP('',(#715,#716,#717,#718));
#129=EDGE_LOOP('',(#719,#720,#721,#722));
#130=EDGE_LOOP('',(#723,#724,#725,#726));
#131=EDGE_LOOP('',(#727,#728,#729,#730));
#132=EDGE_LOOP('',(#731,#732,#733,#734));
#133=EDGE_LOOP('',(#735,#736,#737,#738));
#134=EDGE_LOOP('',(#739,#740,#741,#742));
#135=EDGE_LOOP('',(#743,#744,#745,#746));
#136=EDGE_LOOP('',(#747,#748,#749,#750));
#137=EDGE_LOOP('',(#751,#752,#753,#754));
#138=EDGE_LOOP('',(#755,#756,#757,#758));
#139=EDGE_LOOP('',(#759,#760,#761,#762));
#140=EDGE_LOOP('',(#763,#764,#765,#766));
#141=EDGE_LOOP('',(#767,#768,#769,#770));
#142=EDGE_LOOP('',(#771,#772,#773,#774));
#143=EDGE_LOOP('',(#775,#776,#777,#778));
#144=EDGE_LOOP('',(#779,#780,#781,#782));
#145=EDGE_LOOP('',(#783,#784,#785,#786));
#146=EDGE_LOOP('',(#787));
#147=EDGE_LOOP('',(#788,#789,#790,#791));
#148=EDGE_LOOP('',(#792,#793,#794,#795));
#149=EDGE_LOOP('',(#796));
#150=EDGE_LOOP('',(#797));
#151=EDGE_LOOP('',(#798));
#152=EDGE_LOOP('',(#799));
#153=EDGE_LOOP('',(#800,#801,#802,#803));
#154=EDGE_LOOP('',(#804,#805,#806,#807));
#155=EDGE_LOOP('',(#808,#809,#810,#811));
#156=EDGE_LOOP('',(#812,#813,#814,#815));
#157=EDGE_LOOP('',(#816,#817,#818,#819));
#158=EDGE_LOOP('',(#820,#821,#822,#823));
#159=EDGE_LOOP('',(#824,#825,#826,#827));
#160=EDGE_LOOP('',(#828));
#161=EDGE_LOOP('',(#829,#830,#831,#832));
#162=EDGE_LOOP('',(#833,#834,#835,#836));
#163=EDGE_LOOP('',(#837));
#164=EDGE_LOOP('',(#838));
#165=EDGE_LOOP('',(#839));
#166=EDGE_LOOP('',(#840));
#167=EDGE_LOOP('',(#841,#842,#843,#844));
#168=LINE('',#1218,#281);
#169=LINE('',#1220,#282);
#170=LINE('',#1222,#283);
#171=LINE('',#1223,#284);
#172=LINE('',#1226,#285);
#173=LINE('',#1228,#286);
#174=LINE('',#1229,#287);
#175=LINE('',#1232,#288);
#176=LINE('',#1234,#289);
#177=LINE('',#1235,#290);
#178=LINE('',#1237,#291);
#179=LINE('',#1238,#292);
#180=LINE('',#1242,#293);
#181=LINE('',#1244,#294);
#182=LINE('',#1246,#295);
#183=LINE('',#1247,#296);
#184=LINE('',#1250,#297);
#185=LINE('',#1252,#298);
#186=LINE('',#1253,#299);
#187=LINE('',#1256,#300);
#188=LINE('',#1258,#301);
#189=LINE('',#1259,#302);
#190=LINE('',#1261,#303);
#191=LINE('',#1262,#304);
#192=LINE('',#1266,#305);
#193=LINE('',#1268,#306);
#194=LINE('',#1270,#307);
#195=LINE('',#1271,#308);
#196=LINE('',#1274,#309);
#197=LINE('',#1276,#310);
#198=LINE('',#1277,#311);
#199=LINE('',#1280,#312);
#200=LINE('',#1282,#313);
#201=LINE('',#1283,#314);
#202=LINE('',#1285,#315);
#203=LINE('',#1286,#316);
#204=LINE('',#1290,#317);
#205=LINE('',#1292,#318);
#206=LINE('',#1294,#319);
#207=LINE('',#1295,#320);
#208=LINE('',#1298,#321);
#209=LINE('',#1300,#322);
#210=LINE('',#1301,#323);
#211=LINE('',#1304,#324);
#212=LINE('',#1306,#325);
#213=LINE('',#1307,#326);
#214=LINE('',#1309,#327);
#215=LINE('',#1310,#328);
#216=LINE('',#1314,#329);
#217=LINE('',#1316,#330);
#218=LINE('',#1318,#331);
#219=LINE('',#1319,#332);
#220=LINE('',#1322,#333);
#221=LINE('',#1324,#334);
#222=LINE('',#1325,#335);
#223=LINE('',#1328,#336);
#224=LINE('',#1330,#337);
#225=LINE('',#1331,#338);
#226=LINE('',#1333,#339);
#227=LINE('',#1334,#340);
#228=LINE('',#1338,#341);
#229=LINE('',#1340,#342);
#230=LINE('',#1342,#343);
#231=LINE('',#1343,#344);
#232=LINE('',#1346,#345);
#233=LINE('',#1348,#346);
#234=LINE('',#1349,#347);
#235=LINE('',#1352,#348);
#236=LINE('',#1354,#349);
#237=LINE('',#1355,#350);
#238=LINE('',#1357,#351);
#239=LINE('',#1358,#352);
#240=LINE('',#1363,#353);
#241=LINE('',#1368,#354);
#242=LINE('',#1370,#355);
#243=LINE('',#1372,#356);
#244=LINE('',#1373,#357);
#245=LINE('',#1376,#358);
#246=LINE('',#1378,#359);
#247=LINE('',#1379,#360);
#248=LINE('',#1382,#361);
#249=LINE('',#1384,#362);
#250=LINE('',#1385,#363);
#251=LINE('',#1387,#364);
#252=LINE('',#1388,#365);
#253=LINE('',#1392,#366);
#254=LINE('',#1394,#367);
#255=LINE('',#1396,#368);
#256=LINE('',#1397,#369);
#257=LINE('',#1400,#370);
#258=LINE('',#1402,#371);
#259=LINE('',#1403,#372);
#260=LINE('',#1406,#373);
#261=LINE('',#1408,#374);
#262=LINE('',#1409,#375);
#263=LINE('',#1411,#376);
#264=LINE('',#1412,#377);
#265=LINE('',#1417,#378);
#266=LINE('',#1423,#379);
#267=LINE('',#1429,#380);
#268=LINE('',#1435,#381);
#269=LINE('',#1440,#382);
#270=LINE('',#1442,#383);
#271=LINE('',#1444,#384);
#272=LINE('',#1445,#385);
#273=LINE('',#1448,#386);
#274=LINE('',#1450,#387);
#275=LINE('',#1451,#388);
#276=LINE('',#1454,#389);
#277=LINE('',#1456,#390);
#278=LINE('',#1457,#391);
#279=LINE('',#1459,#392);
#280=LINE('',#1460,#393);
#281=VECTOR('',#997,10.);
#282=VECTOR('',#998,10.);
#283=VECTOR('',#999,10.);
#284=VECTOR('',#1000,10.);
#285=VECTOR('',#1003,10.);
#286=VECTOR('',#1004,10.);
#287=VECTOR('',#1005,10.);
#288=VECTOR('',#1008,10.);
#289=VECTOR('',#1009,10.);
#290=VECTOR('',#1010,10.);
#291=VECTOR('',#1013,10.);
#292=VECTOR('',#1014,10.);
#293=VECTOR('',#1017,10.);
#294=VECTOR('',#1018,10.);
#295=VECTOR('',#1019,10.);
#296=VECTOR('',#1020,10.);
#297=VECTOR('',#1023,10.);
#298=VECTOR('',#1024,10.);
#299=VECTOR('',#1025,10.);
#300=VECTOR('',#1028,10.);
#301=VECTOR('',#1029,10.);
#302=VECTOR('',#1030,10.);
#303=VECTOR('',#1033,10.);
#304=VECTOR('',#1034,10.);
#305=VECTOR('',#1037,10.);
#306=VECTOR('',#1038,10.);
#307=VECTOR('',#1039,10.);
#308=VECTOR('',#1040,10.);
#309=VECTOR('',#1043,10.);
#310=VECTOR('',#1044,10.);
#311=VECTOR('',#1045,10.);
#312=VECTOR('',#1048,10.);
#313=VECTOR('',#1049,10.);
#314=VECTOR('',#1050,10.);
#315=VECTOR('',#1053,10.);
#316=VECTOR('',#1054,10.);
#317=VECTOR('',#1057,10.);
#318=VECTOR('',#1058,10.);
#319=VECTOR('',#1059,10.);
#320=VECTOR('',#1060,10.);
#321=VECTOR('',#1063,10.);
#322=VECTOR('',#1064,10.);
#323=VECTOR('',#1065,10.);
#324=VECTOR('',#1068,10.);
#325=VECTOR('',#1069,10.);
#326=VECTOR('',#1070,10.);
#327=VECTOR('',#1073,10.);
#328=VECTOR('',#1074,10.);
#329=VECTOR('',#1077,10.);
#330=VECTOR('',#1078,10.);
#331=VECTOR('',#1079,10.);
#332=VECTOR('',#1080,10.);
#333=VECTOR('',#1083,10.);
#334=VECTOR('',#1084,10.);
#335=VECTOR('',#1085,10.);
#336=VECTOR('',#1088,10.);
#337=VECTOR('',#1089,10.);
#338=VECTOR('',#1090,10.);
#339=VECTOR('',#1093,10.);
#340=VECTOR('',#1094,10.);
#341=VECTOR('',#1097,10.);
#342=VECTOR('',#1098,10.);
#343=VECTOR('',#1099,10.);
#344=VECTOR('',#1100,10.);
#345=VECTOR('',#1103,10.);
#346=VECTOR('',#1104,10.);
#347=VECTOR('',#1105,10.);
#348=VECTOR('',#1108,10.);
#349=VECTOR('',#1109,10.);
#350=VECTOR('',#1110,10.);
#351=VECTOR('',#1113,10.);
#352=VECTOR('',#1114,10.);
#353=VECTOR('',#1119,3.6);
#354=VECTOR('',#1124,10.);
#355=VECTOR('',#1125,10.);
#356=VECTOR('',#1126,10.);
#357=VECTOR('',#1127,10.);
#358=VECTOR('',#1130,10.);
#359=VECTOR('',#1131,10.);
#360=VECTOR('',#1132,10.);
#361=VECTOR('',#1135,10.);
#362=VECTOR('',#1136,10.);
#363=VECTOR('',#1137,10.);
#364=VECTOR('',#1140,10.);
#365=VECTOR('',#1141,10.);
#366=VECTOR('',#1144,10.);
#367=VECTOR('',#1145,10.);
#368=VECTOR('',#1146,10.);
#369=VECTOR('',#1147,10.);
#370=VECTOR('',#1150,10.);
#371=VECTOR('',#1151,10.);
#372=VECTOR('',#1152,10.);
#373=VECTOR('',#1155,10.);
#374=VECTOR('',#1156,10.);
#375=VECTOR('',#1157,10.);
#376=VECTOR('',#1160,10.);
#377=VECTOR('',#1161,10.);
#378=VECTOR('',#1166,1.45);
#379=VECTOR('',#1173,1.45);
#380=VECTOR('',#1180,1.45);
#381=VECTOR('',#1187,1.45);
#382=VECTOR('',#1192,10.);
#383=VECTOR('',#1193,10.);
#384=VECTOR('',#1194,10.);
#385=VECTOR('',#1195,10.);
#386=VECTOR('',#1198,10.);
#387=VECTOR('',#1199,10.);
#388=VECTOR('',#1200,10.);
#389=VECTOR('',#1203,10.);
#390=VECTOR('',#1204,10.);
#391=VECTOR('',#1205,10.);
#392=VECTOR('',#1208,10.);
#393=VECTOR('',#1209,10.);
#394=VERTEX_POINT('',#1216);
#395=VERTEX_POINT('',#1217);
#396=VERTEX_POINT('',#1219);
#397=VERTEX_POINT('',#1221);
#398=VERTEX_POINT('',#1225);
#399=VERTEX_POINT('',#1227);
#400=VERTEX_POINT('',#1231);
#401=VERTEX_POINT('',#1233);
#402=VERTEX_POINT('',#1240);
#403=VERTEX_POINT('',#1241);
#404=VERTEX_POINT('',#1243);
#405=VERTEX_POINT('',#1245);
#406=VERTEX_POINT('',#1249);
#407=VERTEX_POINT('',#1251);
#408=VERTEX_POINT('',#1255);
#409=VERTEX_POINT('',#1257);
#410=VERTEX_POINT('',#1264);
#411=VERTEX_POINT('',#1265);
#412=VERTEX_POINT('',#1267);
#413=VERTEX_POINT('',#1269);
#414=VERTEX_POINT('',#1273);
#415=VERTEX_POINT('',#1275);
#416=VERTEX_POINT('',#1279);
#417=VERTEX_POINT('',#1281);
#418=VERTEX_POINT('',#1288);
#419=VERTEX_POINT('',#1289);
#420=VERTEX_POINT('',#1291);
#421=VERTEX_POINT('',#1293);
#422=VERTEX_POINT('',#1297);
#423=VERTEX_POINT('',#1299);
#424=VERTEX_POINT('',#1303);
#425=VERTEX_POINT('',#1305);
#426=VERTEX_POINT('',#1312);
#427=VERTEX_POINT('',#1313);
#428=VERTEX_POINT('',#1315);
#429=VERTEX_POINT('',#1317);
#430=VERTEX_POINT('',#1321);
#431=VERTEX_POINT('',#1323);
#432=VERTEX_POINT('',#1327);
#433=VERTEX_POINT('',#1329);
#434=VERTEX_POINT('',#1336);
#435=VERTEX_POINT('',#1337);
#436=VERTEX_POINT('',#1339);
#437=VERTEX_POINT('',#1341);
#438=VERTEX_POINT('',#1345);
#439=VERTEX_POINT('',#1347);
#440=VERTEX_POINT('',#1351);
#441=VERTEX_POINT('',#1353);
#442=VERTEX_POINT('',#1360);
#443=VERTEX_POINT('',#1362);
#444=VERTEX_POINT('',#1366);
#445=VERTEX_POINT('',#1367);
#446=VERTEX_POINT('',#1369);
#447=VERTEX_POINT('',#1371);
#448=VERTEX_POINT('',#1375);
#449=VERTEX_POINT('',#1377);
#450=VERTEX_POINT('',#1381);
#451=VERTEX_POINT('',#1383);
#452=VERTEX_POINT('',#1390);
#453=VERTEX_POINT('',#1391);
#454=VERTEX_POINT('',#1393);
#455=VERTEX_POINT('',#1395);
#456=VERTEX_POINT('',#1399);
#457=VERTEX_POINT('',#1401);
#458=VERTEX_POINT('',#1405);
#459=VERTEX_POINT('',#1407);
#460=VERTEX_POINT('',#1414);
#461=VERTEX_POINT('',#1416);
#462=VERTEX_POINT('',#1420);
#463=VERTEX_POINT('',#1422);
#464=VERTEX_POINT('',#1426);
#465=VERTEX_POINT('',#1428);
#466=VERTEX_POINT('',#1432);
#467=VERTEX_POINT('',#1434);
#468=VERTEX_POINT('',#1438);
#469=VERTEX_POINT('',#1439);
#470=VERTEX_POINT('',#1441);
#471=VERTEX_POINT('',#1443);
#472=VERTEX_POINT('',#1447);
#473=VERTEX_POINT('',#1449);
#474=VERTEX_POINT('',#1453);
#475=VERTEX_POINT('',#1455);
#476=EDGE_CURVE('',#394,#395,#168,.T.);
#477=EDGE_CURVE('',#394,#396,#169,.T.);
#478=EDGE_CURVE('',#397,#396,#170,.T.);
#479=EDGE_CURVE('',#395,#397,#171,.T.);
#480=EDGE_CURVE('',#398,#394,#172,.T.);
#481=EDGE_CURVE('',#398,#399,#173,.T.);
#482=EDGE_CURVE('',#396,#399,#174,.T.);
#483=EDGE_CURVE('',#400,#398,#175,.T.);
#484=EDGE_CURVE('',#400,#401,#176,.T.);
#485=EDGE_CURVE('',#399,#401,#177,.T.);
#486=EDGE_CURVE('',#395,#400,#178,.T.);
#487=EDGE_CURVE('',#401,#397,#179,.T.);
#488=EDGE_CURVE('',#402,#403,#180,.T.);
#489=EDGE_CURVE('',#402,#404,#181,.T.);
#490=EDGE_CURVE('',#405,#404,#182,.T.);
#491=EDGE_CURVE('',#403,#405,#183,.T.);
#492=EDGE_CURVE('',#406,#402,#184,.T.);
#493=EDGE_CURVE('',#406,#407,#185,.T.);
#494=EDGE_CURVE('',#404,#407,#186,.T.);
#495=EDGE_CURVE('',#408,#406,#187,.T.);
#496=EDGE_CURVE('',#408,#409,#188,.T.);
#497=EDGE_CURVE('',#407,#409,#189,.T.);
#498=EDGE_CURVE('',#403,#408,#190,.T.);
#499=EDGE_CURVE('',#409,#405,#191,.T.);
#500=EDGE_CURVE('',#410,#411,#192,.T.);
#501=EDGE_CURVE('',#410,#412,#193,.T.);
#502=EDGE_CURVE('',#413,#412,#194,.T.);
#503=EDGE_CURVE('',#411,#413,#195,.T.);
#504=EDGE_CURVE('',#414,#410,#196,.T.);
#505=EDGE_CURVE('',#414,#415,#197,.T.);
#506=EDGE_CURVE('',#412,#415,#198,.T.);
#507=EDGE_CURVE('',#416,#414,#199,.T.);
#508=EDGE_CURVE('',#416,#417,#200,.T.);
#509=EDGE_CURVE('',#415,#417,#201,.T.);
#510=EDGE_CURVE('',#411,#416,#202,.T.);
#511=EDGE_CURVE('',#417,#413,#203,.T.);
#512=EDGE_CURVE('',#418,#419,#204,.T.);
#513=EDGE_CURVE('',#418,#420,#205,.T.);
#514=EDGE_CURVE('',#421,#420,#206,.T.);
#515=EDGE_CURVE('',#419,#421,#207,.T.);
#516=EDGE_CURVE('',#422,#418,#208,.T.);
#517=EDGE_CURVE('',#422,#423,#209,.T.);
#518=EDGE_CURVE('',#420,#423,#210,.T.);
#519=EDGE_CURVE('',#424,#422,#211,.T.);
#520=EDGE_CURVE('',#424,#425,#212,.T.);
#521=EDGE_CURVE('',#423,#425,#213,.T.);
#522=EDGE_CURVE('',#419,#424,#214,.T.);
#523=EDGE_CURVE('',#425,#421,#215,.T.);
#524=EDGE_CURVE('',#426,#427,#216,.T.);
#525=EDGE_CURVE('',#426,#428,#217,.T.);
#526=EDGE_CURVE('',#429,#428,#218,.T.);
#527=EDGE_CURVE('',#427,#429,#219,.T.);
#528=EDGE_CURVE('',#430,#426,#220,.T.);
#529=EDGE_CURVE('',#430,#431,#221,.T.);
#530=EDGE_CURVE('',#428,#431,#222,.T.);
#531=EDGE_CURVE('',#432,#430,#223,.T.);
#532=EDGE_CURVE('',#432,#433,#224,.T.);
#533=EDGE_CURVE('',#431,#433,#225,.T.);
#534=EDGE_CURVE('',#427,#432,#226,.T.);
#535=EDGE_CURVE('',#433,#429,#227,.T.);
#536=EDGE_CURVE('',#434,#435,#228,.T.);
#537=EDGE_CURVE('',#434,#436,#229,.T.);
#538=EDGE_CURVE('',#437,#436,#230,.T.);
#539=EDGE_CURVE('',#435,#437,#231,.T.);
#540=EDGE_CURVE('',#438,#434,#232,.T.);
#541=EDGE_CURVE('',#438,#439,#233,.T.);
#542=EDGE_CURVE('',#436,#439,#234,.T.);
#543=EDGE_CURVE('',#440,#438,#235,.T.);
#544=EDGE_CURVE('',#440,#441,#236,.T.);
#545=EDGE_CURVE('',#439,#441,#237,.T.);
#546=EDGE_CURVE('',#435,#440,#238,.T.);
#547=EDGE_CURVE('',#441,#437,#239,.T.);
#548=EDGE_CURVE('',#442,#442,#41,.T.);
#549=EDGE_CURVE('',#442,#443,#240,.T.);
#550=EDGE_CURVE('',#443,#443,#42,.T.);
#551=EDGE_CURVE('',#444,#445,#241,.T.);
#552=EDGE_CURVE('',#444,#446,#242,.T.);
#553=EDGE_CURVE('',#447,#446,#243,.T.);
#554=EDGE_CURVE('',#445,#447,#244,.T.);
#555=EDGE_CURVE('',#448,#444,#245,.T.);
#556=EDGE_CURVE('',#448,#449,#246,.T.);
#557=EDGE_CURVE('',#446,#449,#247,.T.);
#558=EDGE_CURVE('',#450,#448,#248,.T.);
#559=EDGE_CURVE('',#450,#451,#249,.T.);
#560=EDGE_CURVE('',#449,#451,#250,.T.);
#561=EDGE_CURVE('',#445,#450,#251,.T.);
#562=EDGE_CURVE('',#451,#447,#252,.T.);
#563=EDGE_CURVE('',#452,#453,#253,.T.);
#564=EDGE_CURVE('',#452,#454,#254,.T.);
#565=EDGE_CURVE('',#455,#454,#255,.T.);
#566=EDGE_CURVE('',#453,#455,#256,.T.);
#567=EDGE_CURVE('',#456,#452,#257,.T.);
#568=EDGE_CURVE('',#456,#457,#258,.T.);
#569=EDGE_CURVE('',#454,#457,#259,.T.);
#570=EDGE_CURVE('',#458,#456,#260,.T.);
#571=EDGE_CURVE('',#458,#459,#261,.T.);
#572=EDGE_CURVE('',#457,#459,#262,.T.);
#573=EDGE_CURVE('',#453,#458,#263,.T.);
#574=EDGE_CURVE('',#459,#455,#264,.T.);
#575=EDGE_CURVE('',#460,#460,#43,.T.);
#576=EDGE_CURVE('',#460,#461,#265,.T.);
#577=EDGE_CURVE('',#461,#461,#44,.T.);
#578=EDGE_CURVE('',#462,#462,#45,.T.);
#579=EDGE_CURVE('',#462,#463,#266,.T.);
#580=EDGE_CURVE('',#463,#463,#46,.T.);
#581=EDGE_CURVE('',#464,#464,#47,.T.);
#582=EDGE_CURVE('',#464,#465,#267,.T.);
#583=EDGE_CURVE('',#465,#465,#48,.T.);
#584=EDGE_CURVE('',#466,#466,#49,.T.);
#585=EDGE_CURVE('',#466,#467,#268,.T.);
#586=EDGE_CURVE('',#467,#467,#50,.T.);
#587=EDGE_CURVE('',#468,#469,#269,.T.);
#588=EDGE_CURVE('',#469,#470,#270,.T.);
#589=EDGE_CURVE('',#471,#470,#271,.T.);
#590=EDGE_CURVE('',#468,#471,#272,.T.);
#591=EDGE_CURVE('',#472,#468,#273,.T.);
#592=EDGE_CURVE('',#473,#471,#274,.T.);
#593=EDGE_CURVE('',#472,#473,#275,.T.);
#594=EDGE_CURVE('',#474,#472,#276,.T.);
#595=EDGE_CURVE('',#475,#473,#277,.T.);
#596=EDGE_CURVE('',#474,#475,#278,.T.);
#597=EDGE_CURVE('',#469,#474,#279,.T.);
#598=EDGE_CURVE('',#470,#475,#280,.T.);
#599=ORIENTED_EDGE('',*,*,#476,.F.);
#600=ORIENTED_EDGE('',*,*,#477,.T.);
#601=ORIENTED_EDGE('',*,*,#478,.F.);
#602=ORIENTED_EDGE('',*,*,#479,.F.);
#603=ORIENTED_EDGE('',*,*,#480,.F.);
#604=ORIENTED_EDGE('',*,*,#481,.T.);
#605=ORIENTED_EDGE('',*,*,#482,.F.);
#606=ORIENTED_EDGE('',*,*,#477,.F.);
#607=ORIENTED_EDGE('',*,*,#483,.F.);
#608=ORIENTED_EDGE('',*,*,#484,.T.);
#609=ORIENTED_EDGE('',*,*,#485,.F.);
#610=ORIENTED_EDGE('',*,*,#481,.F.);
#611=ORIENTED_EDGE('',*,*,#486,.F.);
#612=ORIENTED_EDGE('',*,*,#479,.T.);
#613=ORIENTED_EDGE('',*,*,#487,.F.);
#614=ORIENTED_EDGE('',*,*,#484,.F.);
#615=ORIENTED_EDGE('',*,*,#488,.F.);
#616=ORIENTED_EDGE('',*,*,#489,.T.);
#617=ORIENTED_EDGE('',*,*,#490,.F.);
#618=ORIENTED_EDGE('',*,*,#491,.F.);
#619=ORIENTED_EDGE('',*,*,#492,.F.);
#620=ORIENTED_EDGE('',*,*,#493,.T.);
#621=ORIENTED_EDGE('',*,*,#494,.F.);
#622=ORIENTED_EDGE('',*,*,#489,.F.);
#623=ORIENTED_EDGE('',*,*,#495,.F.);
#624=ORIENTED_EDGE('',*,*,#496,.T.);
#625=ORIENTED_EDGE('',*,*,#497,.F.);
#626=ORIENTED_EDGE('',*,*,#493,.F.);
#627=ORIENTED_EDGE('',*,*,#498,.F.);
#628=ORIENTED_EDGE('',*,*,#491,.T.);
#629=ORIENTED_EDGE('',*,*,#499,.F.);
#630=ORIENTED_EDGE('',*,*,#496,.F.);
#631=ORIENTED_EDGE('',*,*,#500,.F.);
#632=ORIENTED_EDGE('',*,*,#501,.T.);
#633=ORIENTED_EDGE('',*,*,#502,.F.);
#634=ORIENTED_EDGE('',*,*,#503,.F.);
#635=ORIENTED_EDGE('',*,*,#504,.F.);
#636=ORIENTED_EDGE('',*,*,#505,.T.);
#637=ORIENTED_EDGE('',*,*,#506,.F.);
#638=ORIENTED_EDGE('',*,*,#501,.F.);
#639=ORIENTED_EDGE('',*,*,#507,.F.);
#640=ORIENTED_EDGE('',*,*,#508,.T.);
#641=ORIENTED_EDGE('',*,*,#509,.F.);
#642=ORIENTED_EDGE('',*,*,#505,.F.);
#643=ORIENTED_EDGE('',*,*,#510,.F.);
#644=ORIENTED_EDGE('',*,*,#503,.T.);
#645=ORIENTED_EDGE('',*,*,#511,.F.);
#646=ORIENTED_EDGE('',*,*,#508,.F.);
#647=ORIENTED_EDGE('',*,*,#512,.F.);
#648=ORIENTED_EDGE('',*,*,#513,.T.);
#649=ORIENTED_EDGE('',*,*,#514,.F.);
#650=ORIENTED_EDGE('',*,*,#515,.F.);
#651=ORIENTED_EDGE('',*,*,#516,.F.);
#652=ORIENTED_EDGE('',*,*,#517,.T.);
#653=ORIENTED_EDGE('',*,*,#518,.F.);
#654=ORIENTED_EDGE('',*,*,#513,.F.);
#655=ORIENTED_EDGE('',*,*,#519,.F.);
#656=ORIENTED_EDGE('',*,*,#520,.T.);
#657=ORIENTED_EDGE('',*,*,#521,.F.);
#658=ORIENTED_EDGE('',*,*,#517,.F.);
#659=ORIENTED_EDGE('',*,*,#522,.F.);
#660=ORIENTED_EDGE('',*,*,#515,.T.);
#661=ORIENTED_EDGE('',*,*,#523,.F.);
#662=ORIENTED_EDGE('',*,*,#520,.F.);
#663=ORIENTED_EDGE('',*,*,#524,.F.);
#664=ORIENTED_EDGE('',*,*,#525,.T.);
#665=ORIENTED_EDGE('',*,*,#526,.F.);
#666=ORIENTED_EDGE('',*,*,#527,.F.);
#667=ORIENTED_EDGE('',*,*,#528,.F.);
#668=ORIENTED_EDGE('',*,*,#529,.T.);
#669=ORIENTED_EDGE('',*,*,#530,.F.);
#670=ORIENTED_EDGE('',*,*,#525,.F.);
#671=ORIENTED_EDGE('',*,*,#531,.F.);
#672=ORIENTED_EDGE('',*,*,#532,.T.);
#673=ORIENTED_EDGE('',*,*,#533,.F.);
#674=ORIENTED_EDGE('',*,*,#529,.F.);
#675=ORIENTED_EDGE('',*,*,#534,.F.);
#676=ORIENTED_EDGE('',*,*,#527,.T.);
#677=ORIENTED_EDGE('',*,*,#535,.F.);
#678=ORIENTED_EDGE('',*,*,#532,.F.);
#679=ORIENTED_EDGE('',*,*,#536,.F.);
#680=ORIENTED_EDGE('',*,*,#537,.T.);
#681=ORIENTED_EDGE('',*,*,#538,.F.);
#682=ORIENTED_EDGE('',*,*,#539,.F.);
#683=ORIENTED_EDGE('',*,*,#540,.F.);
#684=ORIENTED_EDGE('',*,*,#541,.T.);
#685=ORIENTED_EDGE('',*,*,#542,.F.);
#686=ORIENTED_EDGE('',*,*,#537,.F.);
#687=ORIENTED_EDGE('',*,*,#543,.F.);
#688=ORIENTED_EDGE('',*,*,#544,.T.);
#689=ORIENTED_EDGE('',*,*,#545,.F.);
#690=ORIENTED_EDGE('',*,*,#541,.F.);
#691=ORIENTED_EDGE('',*,*,#546,.F.);
#692=ORIENTED_EDGE('',*,*,#539,.T.);
#693=ORIENTED_EDGE('',*,*,#547,.F.);
#694=ORIENTED_EDGE('',*,*,#544,.F.);
#695=ORIENTED_EDGE('',*,*,#548,.F.);
#696=ORIENTED_EDGE('',*,*,#549,.T.);
#697=ORIENTED_EDGE('',*,*,#550,.F.);
#698=ORIENTED_EDGE('',*,*,#549,.F.);
#699=ORIENTED_EDGE('',*,*,#551,.F.);
#700=ORIENTED_EDGE('',*,*,#552,.T.);
#701=ORIENTED_EDGE('',*,*,#553,.F.);
#702=ORIENTED_EDGE('',*,*,#554,.F.);
#703=ORIENTED_EDGE('',*,*,#555,.F.);
#704=ORIENTED_EDGE('',*,*,#556,.T.);
#705=ORIENTED_EDGE('',*,*,#557,.F.);
#706=ORIENTED_EDGE('',*,*,#552,.F.);
#707=ORIENTED_EDGE('',*,*,#558,.F.);
#708=ORIENTED_EDGE('',*,*,#559,.T.);
#709=ORIENTED_EDGE('',*,*,#560,.F.);
#710=ORIENTED_EDGE('',*,*,#556,.F.);
#711=ORIENTED_EDGE('',*,*,#561,.F.);
#712=ORIENTED_EDGE('',*,*,#554,.T.);
#713=ORIENTED_EDGE('',*,*,#562,.F.);
#714=ORIENTED_EDGE('',*,*,#559,.F.);
#715=ORIENTED_EDGE('',*,*,#563,.F.);
#716=ORIENTED_EDGE('',*,*,#564,.T.);
#717=ORIENTED_EDGE('',*,*,#565,.F.);
#718=ORIENTED_EDGE('',*,*,#566,.F.);
#719=ORIENTED_EDGE('',*,*,#567,.F.);
#720=ORIENTED_EDGE('',*,*,#568,.T.);
#721=ORIENTED_EDGE('',*,*,#569,.F.);
#722=ORIENTED_EDGE('',*,*,#564,.F.);
#723=ORIENTED_EDGE('',*,*,#570,.F.);
#724=ORIENTED_EDGE('',*,*,#571,.T.);
#725=ORIENTED_EDGE('',*,*,#572,.F.);
#726=ORIENTED_EDGE('',*,*,#568,.F.);
#727=ORIENTED_EDGE('',*,*,#573,.F.);
#728=ORIENTED_EDGE('',*,*,#566,.T.);
#729=ORIENTED_EDGE('',*,*,#574,.F.);
#730=ORIENTED_EDGE('',*,*,#571,.F.);
#731=ORIENTED_EDGE('',*,*,#575,.F.);
#732=ORIENTED_EDGE('',*,*,#576,.T.);
#733=ORIENTED_EDGE('',*,*,#577,.T.);
#734=ORIENTED_EDGE('',*,*,#576,.F.);
#735=ORIENTED_EDGE('',*,*,#578,.F.);
#736=ORIENTED_EDGE('',*,*,#579,.T.);
#737=ORIENTED_EDGE('',*,*,#580,.T.);
#738=ORIENTED_EDGE('',*,*,#579,.F.);
#739=ORIENTED_EDGE('',*,*,#581,.F.);
#740=ORIENTED_EDGE('',*,*,#582,.T.);
#741=ORIENTED_EDGE('',*,*,#583,.T.);
#742=ORIENTED_EDGE('',*,*,#582,.F.);
#743=ORIENTED_EDGE('',*,*,#584,.F.);
#744=ORIENTED_EDGE('',*,*,#585,.T.);
#745=ORIENTED_EDGE('',*,*,#586,.T.);
#746=ORIENTED_EDGE('',*,*,#585,.F.);
#747=ORIENTED_EDGE('',*,*,#587,.T.);
#748=ORIENTED_EDGE('',*,*,#588,.T.);
#749=ORIENTED_EDGE('',*,*,#589,.F.);
#750=ORIENTED_EDGE('',*,*,#590,.F.);
#751=ORIENTED_EDGE('',*,*,#591,.T.);
#752=ORIENTED_EDGE('',*,*,#590,.T.);
#753=ORIENTED_EDGE('',*,*,#592,.F.);
#754=ORIENTED_EDGE('',*,*,#593,.F.);
#755=ORIENTED_EDGE('',*,*,#594,.T.);
#756=ORIENTED_EDGE('',*,*,#593,.T.);
#757=ORIENTED_EDGE('',*,*,#595,.F.);
#758=ORIENTED_EDGE('',*,*,#596,.F.);
#759=ORIENTED_EDGE('',*,*,#597,.T.);
#760=ORIENTED_EDGE('',*,*,#596,.T.);
#761=ORIENTED_EDGE('',*,*,#598,.F.);
#762=ORIENTED_EDGE('',*,*,#588,.F.);
#763=ORIENTED_EDGE('',*,*,#598,.T.);
#764=ORIENTED_EDGE('',*,*,#595,.T.);
#765=ORIENTED_EDGE('',*,*,#592,.T.);
#766=ORIENTED_EDGE('',*,*,#589,.T.);
#767=ORIENTED_EDGE('',*,*,#490,.T.);
#768=ORIENTED_EDGE('',*,*,#494,.T.);
#769=ORIENTED_EDGE('',*,*,#497,.T.);
#770=ORIENTED_EDGE('',*,*,#499,.T.);
#771=ORIENTED_EDGE('',*,*,#502,.T.);
#772=ORIENTED_EDGE('',*,*,#506,.T.);
#773=ORIENTED_EDGE('',*,*,#509,.T.);
#774=ORIENTED_EDGE('',*,*,#511,.T.);
#775=ORIENTED_EDGE('',*,*,#514,.T.);
#776=ORIENTED_EDGE('',*,*,#518,.T.);
#777=ORIENTED_EDGE('',*,*,#521,.T.);
#778=ORIENTED_EDGE('',*,*,#523,.T.);
#779=ORIENTED_EDGE('',*,*,#526,.T.);
#780=ORIENTED_EDGE('',*,*,#530,.T.);
#781=ORIENTED_EDGE('',*,*,#533,.T.);
#782=ORIENTED_EDGE('',*,*,#535,.T.);
#783=ORIENTED_EDGE('',*,*,#538,.T.);
#784=ORIENTED_EDGE('',*,*,#542,.T.);
#785=ORIENTED_EDGE('',*,*,#545,.T.);
#786=ORIENTED_EDGE('',*,*,#547,.T.);
#787=ORIENTED_EDGE('',*,*,#550,.T.);
#788=ORIENTED_EDGE('',*,*,#553,.T.);
#789=ORIENTED_EDGE('',*,*,#557,.T.);
#790=ORIENTED_EDGE('',*,*,#560,.T.);
#791=ORIENTED_EDGE('',*,*,#562,.T.);
#792=ORIENTED_EDGE('',*,*,#565,.T.);
#793=ORIENTED_EDGE('',*,*,#569,.T.);
#794=ORIENTED_EDGE('',*,*,#572,.T.);
#795=ORIENTED_EDGE('',*,*,#574,.T.);
#796=ORIENTED_EDGE('',*,*,#584,.T.);
#797=ORIENTED_EDGE('',*,*,#581,.T.);
#798=ORIENTED_EDGE('',*,*,#578,.T.);
#799=ORIENTED_EDGE('',*,*,#575,.T.);
#800=ORIENTED_EDGE('',*,*,#478,.T.);
#801=ORIENTED_EDGE('',*,*,#482,.T.);
#802=ORIENTED_EDGE('',*,*,#485,.T.);
#803=ORIENTED_EDGE('',*,*,#487,.T.);
#804=ORIENTED_EDGE('',*,*,#597,.F.);
#805=ORIENTED_EDGE('',*,*,#587,.F.);
#806=ORIENTED_EDGE('',*,*,#591,.F.);
#807=ORIENTED_EDGE('',*,*,#594,.F.);
#808=ORIENTED_EDGE('',*,*,#488,.T.);
#809=ORIENTED_EDGE('',*,*,#498,.T.);
#810=ORIENTED_EDGE('',*,*,#495,.T.);
#811=ORIENTED_EDGE('',*,*,#492,.T.);
#812=ORIENTED_EDGE('',*,*,#500,.T.);
#813=ORIENTED_EDGE('',*,*,#510,.T.);
#814=ORIENTED_EDGE('',*,*,#507,.T.);
#815=ORIENTED_EDGE('',*,*,#504,.T.);
#816=ORIENTED_EDGE('',*,*,#512,.T.);
#817=ORIENTED_EDGE('',*,*,#522,.T.);
#818=ORIENTED_EDGE('',*,*,#519,.T.);
#819=ORIENTED_EDGE('',*,*,#516,.T.);
#820=ORIENTED_EDGE('',*,*,#524,.T.);
#821=ORIENTED_EDGE('',*,*,#534,.T.);
#822=ORIENTED_EDGE('',*,*,#531,.T.);
#823=ORIENTED_EDGE('',*,*,#528,.T.);
#824=ORIENTED_EDGE('',*,*,#536,.T.);
#825=ORIENTED_EDGE('',*,*,#546,.T.);
#826=ORIENTED_EDGE('',*,*,#543,.T.);
#827=ORIENTED_EDGE('',*,*,#540,.T.);
#828=ORIENTED_EDGE('',*,*,#548,.T.);
#829=ORIENTED_EDGE('',*,*,#551,.T.);
#830=ORIENTED_EDGE('',*,*,#561,.T.);
#831=ORIENTED_EDGE('',*,*,#558,.T.);
#832=ORIENTED_EDGE('',*,*,#555,.T.);
#833=ORIENTED_EDGE('',*,*,#563,.T.);
#834=ORIENTED_EDGE('',*,*,#573,.T.);
#835=ORIENTED_EDGE('',*,*,#570,.T.);
#836=ORIENTED_EDGE('',*,*,#567,.T.);
#837=ORIENTED_EDGE('',*,*,#586,.F.);
#838=ORIENTED_EDGE('',*,*,#583,.F.);
#839=ORIENTED_EDGE('',*,*,#580,.F.);
#840=ORIENTED_EDGE('',*,*,#577,.F.);
#841=ORIENTED_EDGE('',*,*,#476,.T.);
#842=ORIENTED_EDGE('',*,*,#486,.T.);
#843=ORIENTED_EDGE('',*,*,#483,.T.);
#844=ORIENTED_EDGE('',*,*,#480,.T.);
#845=PLANE('',#940);
#846=PLANE('',#941);
#847=PLANE('',#942);
#848=PLANE('',#943);
#849=PLANE('',#944);
#850=PLANE('',#945);
#851=PLANE('',#946);
#852=PLANE('',#947);
#853=PLANE('',#948);
#854=PLANE('',#949);
#855=PLANE('',#950);
#856=PLANE('',#951);
#857=PLANE('',#952);
#858=PLANE('',#953);
#859=PLANE('',#954);
#860=PLANE('',#955);
#861=PLANE('',#956);
#862=PLANE('',#957);
#863=PLANE('',#958);
#864=PLANE('',#959);
#865=PLANE('',#960);
#866=PLANE('',#961);
#867=PLANE('',#962);
#868=PLANE('',#963);
#869=PLANE('',#967);
#870=PLANE('',#968);
#871=PLANE('',#969);
#872=PLANE('',#970);
#873=PLANE('',#971);
#874=PLANE('',#972);
#875=PLANE('',#973);
#876=PLANE('',#974);
#877=PLANE('',#987);
#878=PLANE('',#988);
#879=PLANE('',#989);
#880=PLANE('',#990);
#881=PLANE('',#991);
#882=PLANE('',#992);
#883=ADVANCED_FACE('',(#56),#845,.F.);
#884=ADVANCED_FACE('',(#57),#846,.F.);
#885=ADVANCED_FACE('',(#58),#847,.F.);
#886=ADVANCED_FACE('',(#59),#848,.F.);
#887=ADVANCED_FACE('',(#60),#849,.F.);
#888=ADVANCED_FACE('',(#61),#850,.F.);
#889=ADVANCED_FACE('',(#62),#851,.F.);
#890=ADVANCED_FACE('',(#63),#852,.F.);
#891=ADVANCED_FACE('',(#64),#853,.F.);
#892=ADVANCED_FACE('',(#65),#854,.F.);
#893=ADVANCED_FACE('',(#66),#855,.F.);
#894=ADVANCED_FACE('',(#67),#856,.F.);
#895=ADVANCED_FACE('',(#68),#857,.F.);
#896=ADVANCED_FACE('',(#69),#858,.F.);
#897=ADVANCED_FACE('',(#70),#859,.F.);
#898=ADVANCED_FACE('',(#71),#860,.F.);
#899=ADVANCED_FACE('',(#72),#861,.F.);
#900=ADVANCED_FACE('',(#73),#862,.F.);
#901=ADVANCED_FACE('',(#74),#863,.F.);
#902=ADVANCED_FACE('',(#75),#864,.F.);
#903=ADVANCED_FACE('',(#76),#865,.F.);
#904=ADVANCED_FACE('',(#77),#866,.F.);
#905=ADVANCED_FACE('',(#78),#867,.F.);
#906=ADVANCED_FACE('',(#79),#868,.F.);
#907=ADVANCED_FACE('',(#80),#51,.F.);
#908=ADVANCED_FACE('',(#81),#869,.F.);
#909=ADVANCED_FACE('',(#82),#870,.F.);
#910=ADVANCED_FACE('',(#83),#871,.F.);
#911=ADVANCED_FACE('',(#84),#872,.F.);
#912=ADVANCED_FACE('',(#85),#873,.F.);
#913=ADVANCED_FACE('',(#86),#874,.F.);
#914=ADVANCED_FACE('',(#87),#875,.F.);
#915=ADVANCED_FACE('',(#88),#876,.F.);
#916=ADVANCED_FACE('',(#89),#52,.F.);
#917=ADVANCED_FACE('',(#90),#53,.F.);
#918=ADVANCED_FACE('',(#91),#54,.F.);
#919=ADVANCED_FACE('',(#92),#55,.F.);
#920=ADVANCED_FACE('',(#93),#877,.T.);
#921=ADVANCED_FACE('',(#94),#878,.T.);
#922=ADVANCED_FACE('',(#95),#879,.T.);
#923=ADVANCED_FACE('',(#96),#880,.T.);
#924=ADVANCED_FACE('',(#97,#15,#16,#17,#18,#19,#20,#21,#22,#23,#24,#25,
#26,#27),#881,.T.);
#925=ADVANCED_FACE('',(#98,#28,#29,#30,#31,#32,#33,#34,#35,#36,#37,#38,
#39,#40),#882,.F.);
#926=CLOSED_SHELL('',(#883,#884,#885,#886,#887,#888,#889,#890,#891,#892,
#893,#894,#895,#896,#897,#898,#899,#900,#901,#902,#903,#904,#905,#906,#907,
#908,#909,#910,#911,#912,#913,#914,#915,#916,#917,#918,#919,#920,#921,#922,
#923,#924,#925));
#927=DERIVED_UNIT_ELEMENT(#929,1.);
#928=DERIVED_UNIT_ELEMENT(#1468,-3.);
#929=(
MASS_UNIT()
NAMED_UNIT(*)
SI_UNIT(.KILO.,.GRAM.)
);
#930=DERIVED_UNIT((#927,#928));
#931=MEASURE_REPRESENTATION_ITEM('density measure',
POSITIVE_RATIO_MEASURE(7850.),#930);
#932=PROPERTY_DEFINITION_REPRESENTATION(#937,#934);
#933=PROPERTY_DEFINITION_REPRESENTATION(#938,#935);
#934=REPRESENTATION('material name',(#936),#1465);
#935=REPRESENTATION('density',(#931),#1465);
#936=DESCRIPTIVE_REPRESENTATION_ITEM('Steel','Steel');
#937=PROPERTY_DEFINITION('material property','material name',#1475);
#938=PROPERTY_DEFINITION('material property','density of part',#1475);
#939=AXIS2_PLACEMENT_3D('',#1214,#993,#994);
#940=AXIS2_PLACEMENT_3D('',#1215,#995,#996);
#941=AXIS2_PLACEMENT_3D('',#1224,#1001,#1002);
#942=AXIS2_PLACEMENT_3D('',#1230,#1006,#1007);
#943=AXIS2_PLACEMENT_3D('',#1236,#1011,#1012);
#944=AXIS2_PLACEMENT_3D('',#1239,#1015,#1016);
#945=AXIS2_PLACEMENT_3D('',#1248,#1021,#1022);
#946=AXIS2_PLACEMENT_3D('',#1254,#1026,#1027);
#947=AXIS2_PLACEMENT_3D('',#1260,#1031,#1032);
#948=AXIS2_PLACEMENT_3D('',#1263,#1035,#1036);
#949=AXIS2_PLACEMENT_3D('',#1272,#1041,#1042);
#950=AXIS2_PLACEMENT_3D('',#1278,#1046,#1047);
#951=AXIS2_PLACEMENT_3D('',#1284,#1051,#1052);
#952=AXIS2_PLACEMENT_3D('',#1287,#1055,#1056);
#953=AXIS2_PLACEMENT_3D('',#1296,#1061,#1062);
#954=AXIS2_PLACEMENT_3D('',#1302,#1066,#1067);
#955=AXIS2_PLACEMENT_3D('',#1308,#1071,#1072);
#956=AXIS2_PLACEMENT_3D('',#1311,#1075,#1076);
#957=AXIS2_PLACEMENT_3D('',#1320,#1081,#1082);
#958=AXIS2_PLACEMENT_3D('',#1326,#1086,#1087);
#959=AXIS2_PLACEMENT_3D('',#1332,#1091,#1092);
#960=AXIS2_PLACEMENT_3D('',#1335,#1095,#1096);
#961=AXIS2_PLACEMENT_3D('',#1344,#1101,#1102);
#962=AXIS2_PLACEMENT_3D('',#1350,#1106,#1107);
#963=AXIS2_PLACEMENT_3D('',#1356,#1111,#1112);
#964=AXIS2_PLACEMENT_3D('',#1359,#1115,#1116);
#965=AXIS2_PLACEMENT_3D('',#1361,#1117,#1118);
#966=AXIS2_PLACEMENT_3D('',#1364,#1120,#1121);
#967=AXIS2_PLACEMENT_3D('',#1365,#1122,#1123);
#968=AXIS2_PLACEMENT_3D('',#1374,#1128,#1129);
#969=AXIS2_PLACEMENT_3D('',#1380,#1133,#1134);
#970=AXIS2_PLACEMENT_3D('',#1386,#1138,#1139);
#971=AXIS2_PLACEMENT_3D('',#1389,#1142,#1143);
#972=AXIS2_PLACEMENT_3D('',#1398,#1148,#1149);
#973=AXIS2_PLACEMENT_3D('',#1404,#1153,#1154);
#974=AXIS2_PLACEMENT_3D('',#1410,#1158,#1159);
#975=AXIS2_PLACEMENT_3D('',#1413,#1162,#1163);
#976=AXIS2_PLACEMENT_3D('',#1415,#1164,#1165);
#977=AXIS2_PLACEMENT_3D('',#1418,#1167,#1168);
#978=AXIS2_PLACEMENT_3D('',#1419,#1169,#1170);
#979=AXIS2_PLACEMENT_3D('',#1421,#1171,#1172);
#980=AXIS2_PLACEMENT_3D('',#1424,#1174,#1175);
#981=AXIS2_PLACEMENT_3D('',#1425,#1176,#1177);
#982=AXIS2_PLACEMENT_3D('',#1427,#1178,#1179);
#983=AXIS2_PLACEMENT_3D('',#1430,#1181,#1182);
#984=AXIS2_PLACEMENT_3D('',#1431,#1183,#1184);
#985=AXIS2_PLACEMENT_3D('',#1433,#1185,#1186);
#986=AXIS2_PLACEMENT_3D('',#1436,#1188,#1189);
#987=AXIS2_PLACEMENT_3D('',#1437,#1190,#1191);
#988=AXIS2_PLACEMENT_3D('',#1446,#1196,#1197);
#989=AXIS2_PLACEMENT_3D('',#1452,#1201,#1202);
#990=AXIS2_PLACEMENT_3D('',#1458,#1206,#1207);
#991=AXIS2_PLACEMENT_3D('',#1461,#1210,#1211);
#992=AXIS2_PLACEMENT_3D('',#1462,#1212,#1213);
#993=DIRECTION('axis',(0.,0.,1.));
#994=DIRECTION('refdir',(1.,0.,0.));
#995=DIRECTION('center_axis',(1.,0.,4.39620519804603E-47));
#996=DIRECTION('ref_axis',(4.39620519804603E-47,9.28292950822146E-32,-1.));
#997=DIRECTION('',(4.39620519804603E-47,0.,-1.));
#998=DIRECTION('',(0.,1.,0.));
#999=DIRECTION('',(-4.39620519804603E-47,0.,1.));
#1000=DIRECTION('',(0.,1.,0.));
#1001=DIRECTION('center_axis',(0.,0.,1.));
#1002=DIRECTION('ref_axis',(1.,-4.73579508941926E-16,0.));
#1003=DIRECTION('',(1.,0.,0.));
#1004=DIRECTION('',(0.,1.,0.));
#1005=DIRECTION('',(-1.,0.,0.));
#1006=DIRECTION('center_axis',(-1.,0.,-4.39620519804603E-47));
#1007=DIRECTION('ref_axis',(-4.39620519804603E-47,-9.28292950822146E-32,
1.));
#1008=DIRECTION('',(-4.39620519804603E-47,0.,1.));
#1009=DIRECTION('',(0.,1.,0.));
#1010=DIRECTION('',(4.39620519804603E-47,0.,-1.));
#1011=DIRECTION('center_axis',(0.,0.,-1.));
#1012=DIRECTION('ref_axis',(-1.,4.73579508941926E-16,0.));
#1013=DIRECTION('',(-1.,0.,0.));
#1014=DIRECTION('',(1.,0.,0.));
#1015=DIRECTION('center_axis',(1.,0.,4.18859132811225E-32));
#1016=DIRECTION('ref_axis',(4.18859132811225E-32,1.92554192349184E-16,-1.));
#1017=DIRECTION('',(4.18859132811225E-32,0.,-1.));
#1018=DIRECTION('',(0.,1.,0.));
#1019=DIRECTION('',(-4.18859132811225E-32,0.,1.));
#1020=DIRECTION('',(0.,1.,0.));
#1021=DIRECTION('center_axis',(-6.34413156928661E-16,0.,1.));
#1022=DIRECTION('ref_axis',(1.,-5.12814496463406E-16,6.34413156928661E-16));
#1023=DIRECTION('',(1.,0.,6.34413156928661E-16));
#1024=DIRECTION('',(0.,1.,0.));
#1025=DIRECTION('',(-1.,0.,-6.34413156928661E-16));
#1026=DIRECTION('center_axis',(-1.,0.,-4.18859132811225E-32));
#1027=DIRECTION('ref_axis',(-4.18859132811225E-32,-1.92554192349184E-16,
1.));
#1028=DIRECTION('',(-4.18859132811225E-32,0.,1.));
#1029=DIRECTION('',(0.,1.,0.));
#1030=DIRECTION('',(4.18859132811225E-32,0.,-1.));
#1031=DIRECTION('center_axis',(-5.6858667910342E-32,0.,-1.));
#1032=DIRECTION('ref_axis',(-1.,5.12814496463406E-16,5.6858667910342E-32));
#1033=DIRECTION('',(-1.,0.,5.6858667910342E-32));
#1034=DIRECTION('',(1.,0.,-5.6858667910342E-32));
#1035=DIRECTION('center_axis',(1.,-7.75045088869248E-48,4.18859132811225E-32));
#1036=DIRECTION('ref_axis',(4.18859132811225E-32,1.92554192349184E-16,-1.));
#1037=DIRECTION('',(4.18859132811225E-32,0.,-1.));
#1038=DIRECTION('',(0.,1.,1.85037170770859E-16));
#1039=DIRECTION('',(-4.18859132811225E-32,0.,1.));
#1040=DIRECTION('',(0.,1.,1.85037170770859E-16));
#1041=DIRECTION('center_axis',(7.93016446160826E-17,-1.85037170770859E-16,
1.));
#1042=DIRECTION('ref_axis',(1.,-5.12814496463406E-16,-7.93016446160827E-17));
#1043=DIRECTION('',(1.,0.,-7.93016446160826E-17));
#1044=DIRECTION('',(0.,1.,1.85037170770859E-16));
#1045=DIRECTION('',(-1.,0.,7.93016446160826E-17));
#1046=DIRECTION('center_axis',(-1.,-1.64346021921044E-31,8.88178419700125E-16));
#1047=DIRECTION('ref_axis',(8.88178419700125E-16,-1.92554192349185E-16,
1.));
#1048=DIRECTION('',(8.88178419700125E-16,0.,1.));
#1049=DIRECTION('',(0.,1.,1.85037170770859E-16));
#1050=DIRECTION('',(-8.88178419700125E-16,0.,-1.));
#1051=DIRECTION('center_axis',(3.80310756455294E-32,1.85037170770859E-16,
-1.));
#1052=DIRECTION('ref_axis',(-1.,5.12814496463406E-16,5.6858667910342E-32));
#1053=DIRECTION('',(-1.,0.,-3.80310756455294E-32));
#1054=DIRECTION('',(1.,0.,3.80310756455294E-32));
#1055=DIRECTION('center_axis',(1.,-5.55111512312578E-16,-1.58603289232165E-16));
#1056=DIRECTION('ref_axis',(-1.58603289232165E-16,1.92554192349184E-16,
-1.));
#1057=DIRECTION('',(-1.58603289232165E-16,0.,-1.));
#1058=DIRECTION('',(5.55111512312578E-16,1.,0.));
#1059=DIRECTION('',(1.58603289232165E-16,0.,1.));
#1060=DIRECTION('',(5.55111512312578E-16,1.,0.));
#1061=DIRECTION('center_axis',(3.1720657846433E-16,-1.76085023486833E-31,
1.));
#1062=DIRECTION('ref_axis',(1.,-5.12814496463405E-16,-3.1720657846433E-16));
#1063=DIRECTION('',(1.,0.,-3.1720657846433E-16));
#1064=DIRECTION('',(5.55111512312578E-16,1.,0.));
#1065=DIRECTION('',(-1.,0.,3.1720657846433E-16));
#1066=DIRECTION('center_axis',(-1.,5.55111512312578E-16,7.93016446160827E-17));
#1067=DIRECTION('ref_axis',(7.93016446160826E-17,-1.92554192349184E-16,
1.));
#1068=DIRECTION('',(7.93016446160827E-17,0.,1.));
#1069=DIRECTION('',(5.55111512312578E-16,1.,0.));
#1070=DIRECTION('',(-7.93016446160827E-17,0.,-1.));
#1071=DIRECTION('center_axis',(-5.6858667910342E-32,3.15629011317886E-47,
-1.));
#1072=DIRECTION('ref_axis',(-1.,5.12814496463406E-16,5.6858667910342E-32));
#1073=DIRECTION('',(-1.,0.,5.6858667910342E-32));
#1074=DIRECTION('',(1.,0.,-5.6858667910342E-32));
#1075=DIRECTION('center_axis',(1.,-7.40148683083438E-16,-1.00632818608321E-31));
#1076=DIRECTION('ref_axis',(4.18859132811225E-32,1.92554192349184E-16,-1.));
#1077=DIRECTION('',(-1.00632818608321E-31,0.,-1.));
#1078=DIRECTION('',(7.40148683083438E-16,1.,0.));
#1079=DIRECTION('',(1.00632818608321E-31,0.,1.));
#1080=DIRECTION('',(7.40148683083438E-16,1.,0.));
#1081=DIRECTION('center_axis',(6.34413156928661E-16,-4.69560062631555E-31,
1.));
#1082=DIRECTION('ref_axis',(1.,-5.12814496463405E-16,-6.34413156928661E-16));
#1083=DIRECTION('',(1.,0.,-6.34413156928661E-16));
#1084=DIRECTION('',(7.40148683083438E-16,1.,0.));
#1085=DIRECTION('',(-1.,0.,6.34413156928661E-16));
#1086=DIRECTION('center_axis',(-1.,7.40148683083438E-16,1.00632818608321E-31));
#1087=DIRECTION('ref_axis',(-4.18859132811225E-32,-1.92554192349184E-16,
1.));
#1088=DIRECTION('',(1.00632818608321E-31,0.,1.));
#1089=DIRECTION('',(7.40148683083438E-16,1.,0.));
#1090=DIRECTION('',(-1.00632818608321E-31,0.,-1.));
#1091=DIRECTION('center_axis',(-5.6858667910342E-32,4.20838681757182E-47,
-1.));
#1092=DIRECTION('ref_axis',(-1.,5.12814496463406E-16,5.6858667910342E-32));
#1093=DIRECTION('',(-1.,0.,5.6858667910342E-32));
#1094=DIRECTION('',(1.,0.,-5.6858667910342E-32));
#1095=DIRECTION('center_axis',(1.,0.,4.18859132811225E-32));
#1096=DIRECTION('ref_axis',(4.18859132811225E-32,1.92554192349184E-16,-1.));
#1097=DIRECTION('',(4.18859132811225E-32,0.,-1.));
#1098=DIRECTION('',(0.,1.,0.));
#1099=DIRECTION('',(-4.18859132811225E-32,0.,1.));
#1100=DIRECTION('',(0.,1.,0.));
#1101=DIRECTION('center_axis',(5.6858667910342E-32,0.,1.));
#1102=DIRECTION('ref_axis',(1.,-5.12814496463406E-16,-5.6858667910342E-32));
#1103=DIRECTION('',(1.,0.,-5.6858667910342E-32));
#1104=DIRECTION('',(0.,1.,0.));
#1105=DIRECTION('',(-1.,0.,5.6858667910342E-32));
#1106=DIRECTION('center_axis',(-1.,0.,-4.18859132811225E-32));
#1107=DIRECTION('ref_axis',(-4.18859132811225E-32,-1.92554192349184E-16,
1.));
#1108=DIRECTION('',(-4.18859132811225E-32,0.,1.));
#1109=DIRECTION('',(0.,1.,0.));
#1110=DIRECTION('',(4.18859132811225E-32,0.,-1.));
#1111=DIRECTION('center_axis',(3.1720657846433E-16,0.,-1.));
#1112=DIRECTION('ref_axis',(-1.,5.12814496463406E-16,-3.1720657846433E-16));
#1113=DIRECTION('',(-1.,0.,-3.1720657846433E-16));
#1114=DIRECTION('',(1.,0.,3.1720657846433E-16));
#1115=DIRECTION('center_axis',(7.40148683083438E-16,1.,3.70074341541719E-16));
#1116=DIRECTION('ref_axis',(-1.,7.40148683083438E-16,1.40989217333673E-31));
#1117=DIRECTION('center_axis',(0.,1.,0.));
#1118=DIRECTION('ref_axis',(-1.,7.40148683083438E-16,1.40989217333673E-31));
#1119=DIRECTION('',(7.40148683083438E-16,1.,3.70074341541719E-16));
#1120=DIRECTION('center_axis',(0.,-1.,0.));
#1121=DIRECTION('ref_axis',(-1.,7.40148683083438E-16,1.40989217333673E-31));
#1122=DIRECTION('center_axis',(1.,-7.40148683083438E-16,-1.00632818608321E-31));
#1123=DIRECTION('ref_axis',(4.18859132811225E-32,1.92554192349184E-16,-1.));
#1124=DIRECTION('',(-1.00632818608321E-31,0.,-1.));
#1125=DIRECTION('',(7.40148683083438E-16,1.,0.));
#1126=DIRECTION('',(1.00632818608321E-31,0.,1.));
#1127=DIRECTION('',(7.40148683083438E-16,1.,0.));
#1128=DIRECTION('center_axis',(5.6858667910342E-32,-4.20838681757182E-47,
1.));
#1129=DIRECTION('ref_axis',(1.,-5.12814496463406E-16,-5.6858667910342E-32));
#1130=DIRECTION('',(1.,0.,-5.6858667910342E-32));
#1131=DIRECTION('',(7.40148683083438E-16,1.,0.));
#1132=DIRECTION('',(-1.,0.,5.6858667910342E-32));
#1133=DIRECTION('center_axis',(-1.,7.40148683083438E-16,-1.58603289232165E-16));
#1134=DIRECTION('ref_axis',(-1.58603289232165E-16,-1.92554192349184E-16,
1.));
#1135=DIRECTION('',(-1.58603289232165E-16,0.,1.));
#1136=DIRECTION('',(7.40148683083438E-16,1.,0.));
#1137=DIRECTION('',(1.58603289232165E-16,0.,-1.));
#1138=DIRECTION('center_axis',(-5.6858667910342E-32,4.20838681757182E-47,
-1.));
#1139=DIRECTION('ref_axis',(-1.,5.12814496463406E-16,5.6858667910342E-32));
#1140=DIRECTION('',(-1.,0.,5.6858667910342E-32));
#1141=DIRECTION('',(1.,0.,-5.6858667910342E-32));
#1142=DIRECTION('center_axis',(1.,-5.55111512312578E-16,-6.50031356359601E-32));
#1143=DIRECTION('ref_axis',(4.18859132811225E-32,1.92554192349184E-16,-1.));
#1144=DIRECTION('',(-6.50031356359601E-32,0.,-1.));
#1145=DIRECTION('',(5.55111512312578E-16,1.,0.));
#1146=DIRECTION('',(6.50031356359601E-32,0.,1.));
#1147=DIRECTION('',(5.55111512312578E-16,1.,0.));
#1148=DIRECTION('center_axis',(6.34413156928661E-16,-3.52170046973666E-31,
1.));
#1149=DIRECTION('ref_axis',(1.,-5.12814496463405E-16,-6.34413156928661E-16));
#1150=DIRECTION('',(1.,0.,-6.34413156928661E-16));
#1151=DIRECTION('',(5.55111512312578E-16,1.,0.));
#1152=DIRECTION('',(-1.,0.,6.34413156928661E-16));
#1153=DIRECTION('center_axis',(-1.,5.55111512312578E-16,3.96508223080413E-17));
#1154=DIRECTION('ref_axis',(3.96508223080412E-17,-1.92554192349184E-16,
1.));
#1155=DIRECTION('',(3.96508223080413E-17,0.,1.));
#1156=DIRECTION('',(5.55111512312578E-16,1.,0.));
#1157=DIRECTION('',(-3.96508223080413E-17,0.,-1.));
#1158=DIRECTION('center_axis',(-5.6858667910342E-32,3.15629011317886E-47,
-1.));
#1159=DIRECTION('ref_axis',(-1.,5.12814496463406E-16,5.6858667910342E-32));
#1160=DIRECTION('',(-1.,0.,5.6858667910342E-32));
#1161=DIRECTION('',(1.,0.,-5.6858667910342E-32));
#1162=DIRECTION('center_axis',(0.,1.,0.));
#1163=DIRECTION('ref_axis',(-1.,0.,0.));
#1164=DIRECTION('center_axis',(0.,-1.,0.));
#1165=DIRECTION('ref_axis',(-1.,0.,0.));
#1166=DIRECTION('',(0.,-1.,0.));
#1167=DIRECTION('center_axis',(0.,-1.,0.));
#1168=DIRECTION('ref_axis',(-1.,0.,0.));
#1169=DIRECTION('center_axis',(0.,1.,0.));
#1170=DIRECTION('ref_axis',(-1.,0.,0.));
#1171=DIRECTION('center_axis',(0.,-1.,0.));
#1172=DIRECTION('ref_axis',(-1.,0.,0.));
#1173=DIRECTION('',(0.,-1.,0.));
#1174=DIRECTION('center_axis',(0.,-1.,0.));
#1175=DIRECTION('ref_axis',(-1.,0.,0.));
#1176=DIRECTION('center_axis',(0.,1.,0.));
#1177=DIRECTION('ref_axis',(-1.,0.,0.));
#1178=DIRECTION('center_axis',(0.,-1.,0.));
#1179=DIRECTION('ref_axis',(-1.,0.,0.));
#1180=DIRECTION('',(0.,-1.,0.));
#1181=DIRECTION('center_axis',(0.,-1.,0.));
#1182=DIRECTION('ref_axis',(-1.,0.,0.));
#1183=DIRECTION('center_axis',(0.,1.,0.));
#1184=DIRECTION('ref_axis',(-1.,0.,0.));
#1185=DIRECTION('center_axis',(0.,-1.,0.));
#1186=DIRECTION('ref_axis',(-1.,0.,0.));
#1187=DIRECTION('',(0.,-1.,0.));
#1188=DIRECTION('center_axis',(0.,-1.,0.));
#1189=DIRECTION('ref_axis',(-1.,0.,0.));
#1190=DIRECTION('center_axis',(0.,0.,-1.));
#1191=DIRECTION('ref_axis',(-1.,0.,0.));
#1192=DIRECTION('',(-1.,0.,0.));
#1193=DIRECTION('',(0.,1.,0.));
#1194=DIRECTION('',(-1.,0.,0.));
#1195=DIRECTION('',(0.,1.,0.));
#1196=DIRECTION('center_axis',(1.,0.,0.));
#1197=DIRECTION('ref_axis',(0.,0.,-1.));
#1198=DIRECTION('',(0.,0.,-1.));
#1199=DIRECTION('',(0.,0.,-1.));
#1200=DIRECTION('',(0.,1.,0.));
#1201=DIRECTION('center_axis',(0.,0.,1.));
#1202=DIRECTION('ref_axis',(1.,0.,0.));
#1203=DIRECTION('',(1.,0.,0.));
#1204=DIRECTION('',(1.,0.,0.));
#1205=DIRECTION('',(0.,1.,0.));
#1206=DIRECTION('center_axis',(-1.,0.,0.));
#1207=DIRECTION('ref_axis',(0.,0.,1.));
#1208=DIRECTION('',(0.,0.,1.));
#1209=DIRECTION('',(0.,0.,1.));
#1210=DIRECTION('center_axis',(0.,1.,0.));
#1211=DIRECTION('ref_axis',(-1.,0.,0.));
#1212=DIRECTION('center_axis',(0.,1.,0.));
#1213=DIRECTION('ref_axis',(-1.,0.,0.));
#1214=CARTESIAN_POINT('',(0.,0.,0.));
#1215=CARTESIAN_POINT('Origin',(71.0000010579825,13.,45.0000006705523));
#1216=CARTESIAN_POINT('',(71.0000010579825,13.,45.0000006705523));
#1217=CARTESIAN_POINT('',(71.0000010579825,13.,27.0000004023314));
#1218=CARTESIAN_POINT('',(71.0000010579824,13.,35.9750002980232));
#1219=CARTESIAN_POINT('',(71.0000010579825,16.,45.0000006705523));
#1220=CARTESIAN_POINT('',(71.0000010579825,13.,45.0000006705523));
#1221=CARTESIAN_POINT('',(71.0000010579825,16.,27.0000004023314));
#1222=CARTESIAN_POINT('',(71.0000010579824,16.,35.9750002980232));
#1223=CARTESIAN_POINT('',(71.0000010579825,13.,27.0000004023314));
#1224=CARTESIAN_POINT('Origin',(53.0000007897616,13.,45.0000006705523));
#1225=CARTESIAN_POINT('',(53.0000007897616,13.,45.0000006705523));
#1226=CARTESIAN_POINT('',(44.7250003576279,13.,45.0000006705523));
#1227=CARTESIAN_POINT('',(53.0000007897616,16.,45.0000006705523));
#1228=CARTESIAN_POINT('',(53.0000007897616,13.,45.0000006705523));
#1229=CARTESIAN_POINT('',(44.7250003576279,16.,45.0000006705523));
#1230=CARTESIAN_POINT('Origin',(53.0000007897616,13.,27.0000004023314));
#1231=CARTESIAN_POINT('',(53.0000007897616,13.,27.0000004023314));
#1232=CARTESIAN_POINT('',(53.0000007897615,13.,26.9750001639128));
#1233=CARTESIAN_POINT('',(53.0000007897616,16.,27.0000004023314));
#1234=CARTESIAN_POINT('',(53.0000007897616,13.,27.0000004023314));
#1235=CARTESIAN_POINT('',(53.0000007897615,16.,26.9750001639128));
#1236=CARTESIAN_POINT('Origin',(71.0000010579825,13.,27.0000004023314));
#1237=CARTESIAN_POINT('',(53.7250004917383,13.,27.0000004023314));
#1238=CARTESIAN_POINT('',(53.7250004917383,16.,27.0000004023314));
#1239=CARTESIAN_POINT('Origin',(48.3867391971332,13.,50.2553337701692));
#1240=CARTESIAN_POINT('',(48.3867391971332,13.,50.2553337701692));
#1241=CARTESIAN_POINT('',(48.3867391971332,13.,36.2553337701692));
#1242=CARTESIAN_POINT('',(48.3867391971332,13.,38.6026668478317));
#1243=CARTESIAN_POINT('',(48.3867391971332,16.,50.2553337701692));
#1244=CARTESIAN_POINT('',(48.3867391971332,13.,50.2553337701692));
#1245=CARTESIAN_POINT('',(48.3867391971332,16.,36.2553337701692));
#1246=CARTESIAN_POINT('',(48.3867391971332,16.,38.6026668478317));
#1247=CARTESIAN_POINT('',(48.3867391971332,13.,36.2553337701692));
#1248=CARTESIAN_POINT('Origin',(34.3867391971332,13.,50.2553337701692));
#1249=CARTESIAN_POINT('',(34.3867391971332,13.,50.2553337701692));
#1250=CARTESIAN_POINT('',(35.4183695613137,13.,50.2553337701692));
#1251=CARTESIAN_POINT('',(34.3867391971332,16.,50.2553337701692));
#1252=CARTESIAN_POINT('',(34.3867391971332,13.,50.2553337701692));
#1253=CARTESIAN_POINT('',(35.4183695613137,16.,50.2553337701692));
#1254=CARTESIAN_POINT('Origin',(34.3867391971332,13.,36.2553337701692));
#1255=CARTESIAN_POINT('',(34.3867391971332,13.,36.2553337701692));
#1256=CARTESIAN_POINT('',(34.3867391971332,13.,31.6026668478317));
#1257=CARTESIAN_POINT('',(34.3867391971332,16.,36.2553337701692));
#1258=CARTESIAN_POINT('',(34.3867391971332,13.,36.2553337701692));
#1259=CARTESIAN_POINT('',(34.3867391971332,16.,31.6026668478317));
#1260=CARTESIAN_POINT('Origin',(48.3867391971332,13.,36.2553337701692));
#1261=CARTESIAN_POINT('',(42.4183695613137,13.,36.2553337701692));
#1262=CARTESIAN_POINT('',(42.4183695613137,16.,36.2553337701692));
#1263=CARTESIAN_POINT('Origin',(51.4267391971333,13.,14.1753338297743));
#1264=CARTESIAN_POINT('',(51.4267391971333,13.,14.1753338297743));
#1265=CARTESIAN_POINT('',(51.4267391971333,13.,4.17533382977432));
#1266=CARTESIAN_POINT('',(51.4267391971333,13.,20.5626668776343));
#1267=CARTESIAN_POINT('',(51.4267391971333,16.,14.1753338297743));
#1268=CARTESIAN_POINT('',(51.4267391971333,13.,14.1753338297743));
#1269=CARTESIAN_POINT('',(51.4267391971333,16.,4.17533382977432));
#1270=CARTESIAN_POINT('',(51.4267391971333,16.,20.5626668776343));
#1271=CARTESIAN_POINT('',(51.4267391971333,13.,4.17533382977432));
#1272=CARTESIAN_POINT('Origin',(23.4267391971333,13.,14.1753338297743));
#1273=CARTESIAN_POINT('',(23.4267391971333,13.,14.1753338297743));
#1274=CARTESIAN_POINT('',(29.9383695613137,13.,14.1753338297743));
#1275=CARTESIAN_POINT('',(23.4267391971333,16.,14.1753338297743));
#1276=CARTESIAN_POINT('',(23.4267391971333,13.,14.1753338297743));
#1277=CARTESIAN_POINT('',(29.9383695613137,16.,14.1753338297743));
#1278=CARTESIAN_POINT('Origin',(23.4267391971333,13.,4.17533382977432));
#1279=CARTESIAN_POINT('',(23.4267391971333,13.,4.17533382977432));
#1280=CARTESIAN_POINT('',(23.4267391971333,13.,15.5626668776343));
#1281=CARTESIAN_POINT('',(23.4267391971333,16.,4.17533382977432));
#1282=CARTESIAN_POINT('',(23.4267391971333,13.,4.17533382977432));
#1283=CARTESIAN_POINT('',(23.4267391971333,16.,15.5626668776343));
#1284=CARTESIAN_POINT('Origin',(51.4267391971333,13.,4.17533382977432));
#1285=CARTESIAN_POINT('',(43.9383695613137,13.,4.17533382977432));
#1286=CARTESIAN_POINT('',(43.9383695613137,16.,4.17533382977432));
#1287=CARTESIAN_POINT('Origin',(18.2067391971336,13.,35.1653337701694));
#1288=CARTESIAN_POINT('',(18.2067391971336,13.,35.1653337701694));
#1289=CARTESIAN_POINT('',(18.2067391971336,13.,21.1653337701694));
#1290=CARTESIAN_POINT('',(18.2067391971336,13.,31.0576668478318));
#1291=CARTESIAN_POINT('',(18.2067391971336,16.,35.1653337701694));
#1292=CARTESIAN_POINT('',(18.2067391971336,13.,35.1653337701694));
#1293=CARTESIAN_POINT('',(18.2067391971336,16.,21.1653337701694));
#1294=CARTESIAN_POINT('',(18.2067391971336,16.,31.0576668478318));
#1295=CARTESIAN_POINT('',(18.2067391971336,13.,21.1653337701694));
#1296=CARTESIAN_POINT('Origin',(4.20673919713363,13.,35.1653337701694));
#1297=CARTESIAN_POINT('',(4.20673919713363,13.,35.1653337701694));
#1298=CARTESIAN_POINT('',(20.3283695613139,13.,35.1653337701694));
#1299=CARTESIAN_POINT('',(4.20673919713363,16.,35.1653337701694));
#1300=CARTESIAN_POINT('',(4.20673919713363,13.,35.1653337701694));
#1301=CARTESIAN_POINT('',(20.3283695613139,16.,35.1653337701694));
#1302=CARTESIAN_POINT('Origin',(4.20673919713363,13.,21.1653337701694));
#1303=CARTESIAN_POINT('',(4.20673919713363,13.,21.1653337701694));
#1304=CARTESIAN_POINT('',(4.20673919713363,13.,24.0576668478318));
#1305=CARTESIAN_POINT('',(4.20673919713363,16.,21.1653337701694));
#1306=CARTESIAN_POINT('',(4.20673919713363,13.,21.1653337701694));
#1307=CARTESIAN_POINT('',(4.20673919713363,16.,24.0576668478318));
#1308=CARTESIAN_POINT('Origin',(18.2067391971336,13.,21.1653337701694));
#1309=CARTESIAN_POINT('',(27.3283695613139,13.,21.1653337701694));
#1310=CARTESIAN_POINT('',(27.3283695613139,16.,21.1653337701694));
#1311=CARTESIAN_POINT('Origin',(33.2967391971335,13.,50.2553337701692));
#1312=CARTESIAN_POINT('',(33.2967391971335,13.,50.2553337701692));
#1313=CARTESIAN_POINT('',(33.2967391971335,13.,36.2553337701692));
#1314=CARTESIAN_POINT('',(33.2967391971335,13.,38.6026668478317));
#1315=CARTESIAN_POINT('',(33.2967391971335,16.,50.2553337701692));
#1316=CARTESIAN_POINT('',(33.2967391971335,13.,50.2553337701692));
#1317=CARTESIAN_POINT('',(33.2967391971335,16.,36.2553337701692));
#1318=CARTESIAN_POINT('',(33.2967391971335,16.,38.6026668478317));
#1319=CARTESIAN_POINT('',(33.2967391971335,13.,36.2553337701692));
#1320=CARTESIAN_POINT('Origin',(19.2967391971335,13.,50.2553337701692));
#1321=CARTESIAN_POINT('',(19.2967391971335,13.,50.2553337701692));
#1322=CARTESIAN_POINT('',(27.8733695613138,13.,50.2553337701692));
#1323=CARTESIAN_POINT('',(19.2967391971335,16.,50.2553337701692));
#1324=CARTESIAN_POINT('',(19.2967391971335,13.,50.2553337701692));
#1325=CARTESIAN_POINT('',(27.8733695613138,16.,50.2553337701692));
#1326=CARTESIAN_POINT('Origin',(19.2967391971335,13.,36.2553337701692));
#1327=CARTESIAN_POINT('',(19.2967391971335,13.,36.2553337701692));
#1328=CARTESIAN_POINT('',(19.2967391971335,13.,31.6026668478317));
#1329=CARTESIAN_POINT('',(19.2967391971335,16.,36.2553337701692));
#1330=CARTESIAN_POINT('',(19.2967391971335,13.,36.2553337701692));
#1331=CARTESIAN_POINT('',(19.2967391971335,16.,31.6026668478317));
#1332=CARTESIAN_POINT('Origin',(33.2967391971335,13.,36.2553337701692));
#1333=CARTESIAN_POINT('',(34.8733695613138,13.,36.2553337701692));
#1334=CARTESIAN_POINT('',(34.8733695613138,16.,36.2553337701692));
#1335=CARTESIAN_POINT('Origin',(48.3867391971332,13.,35.1653337701694));
#1336=CARTESIAN_POINT('',(48.3867391971332,13.,35.1653337701694));
#1337=CARTESIAN_POINT('',(48.3867391971332,13.,21.1653337701694));
#1338=CARTESIAN_POINT('',(48.3867391971332,13.,31.0576668478318));
#1339=CARTESIAN_POINT('',(48.3867391971332,16.,35.1653337701694));
#1340=CARTESIAN_POINT('',(48.3867391971332,13.,35.1653337701694));
#1341=CARTESIAN_POINT('',(48.3867391971332,16.,21.1653337701694));
#1342=CARTESIAN_POINT('',(48.3867391971332,16.,31.0576668478318));
#1343=CARTESIAN_POINT('',(48.3867391971332,13.,21.1653337701694));
#1344=CARTESIAN_POINT('Origin',(34.3867391971332,13.,35.1653337701694));
#1345=CARTESIAN_POINT('',(34.3867391971332,13.,35.1653337701694));
#1346=CARTESIAN_POINT('',(35.4183695613137,13.,35.1653337701694));
#1347=CARTESIAN_POINT('',(34.3867391971332,16.,35.1653337701694));
#1348=CARTESIAN_POINT('',(34.3867391971332,13.,35.1653337701694));
#1349=CARTESIAN_POINT('',(35.4183695613137,16.,35.1653337701694));
#1350=CARTESIAN_POINT('Origin',(34.3867391971332,13.,21.1653337701694));
#1351=CARTESIAN_POINT('',(34.3867391971332,13.,21.1653337701694));
#1352=CARTESIAN_POINT('',(34.3867391971332,13.,24.0576668478318));
#1353=CARTESIAN_POINT('',(34.3867391971332,16.,21.1653337701694));
#1354=CARTESIAN_POINT('',(34.3867391971332,13.,21.1653337701694));
#1355=CARTESIAN_POINT('',(34.3867391971332,16.,24.0576668478318));
#1356=CARTESIAN_POINT('Origin',(48.3867391971332,13.,21.1653337701694));
#1357=CARTESIAN_POINT('',(42.4183695613137,13.,21.1653337701694));
#1358=CARTESIAN_POINT('',(42.4183695613137,16.,21.1653337701694));
#1359=CARTESIAN_POINT('Origin',(10.6767391971336,13.,9.67533377016968));
#1360=CARTESIAN_POINT('',(14.2767391971336,13.,9.67533377016968));
#1361=CARTESIAN_POINT('Origin',(10.6767391971336,13.,9.67533377016968));
#1362=CARTESIAN_POINT('',(14.2767391971336,16.,9.67533377016968));
#1363=CARTESIAN_POINT('',(14.2767391971336,13.,9.67533377016968));
#1364=CARTESIAN_POINT('Origin',(10.6767391971336,16.,9.67533377016968));
#1365=CARTESIAN_POINT('Origin',(33.2967391971334,13.,35.1653337701694));
#1366=CARTESIAN_POINT('',(33.2967391971334,13.,35.1653337701694));
#1367=CARTESIAN_POINT('',(33.2967391971334,13.,21.1653337701694));
#1368=CARTESIAN_POINT('',(33.2967391971334,13.,31.0576668478318));
#1369=CARTESIAN_POINT('',(33.2967391971334,16.,35.1653337701694));
#1370=CARTESIAN_POINT('',(33.2967391971334,13.,35.1653337701694));
#1371=CARTESIAN_POINT('',(33.2967391971334,16.,21.1653337701694));
#1372=CARTESIAN_POINT('',(33.2967391971334,16.,31.0576668478318));
#1373=CARTESIAN_POINT('',(33.2967391971334,13.,21.1653337701694));
#1374=CARTESIAN_POINT('Origin',(19.2967391971334,13.,35.1653337701694));
#1375=CARTESIAN_POINT('',(19.2967391971334,13.,35.1653337701694));
#1376=CARTESIAN_POINT('',(27.8733695613138,13.,35.1653337701694));
#1377=CARTESIAN_POINT('',(19.2967391971334,16.,35.1653337701694));
#1378=CARTESIAN_POINT('',(19.2967391971334,13.,35.1653337701694));
#1379=CARTESIAN_POINT('',(27.8733695613138,16.,35.1653337701694));
#1380=CARTESIAN_POINT('Origin',(19.2967391971334,13.,21.1653337701694));
#1381=CARTESIAN_POINT('',(19.2967391971334,13.,21.1653337701694));
#1382=CARTESIAN_POINT('',(19.2967391971334,13.,24.0576668478318));
#1383=CARTESIAN_POINT('',(19.2967391971334,16.,21.1653337701694));
#1384=CARTESIAN_POINT('',(19.2967391971334,13.,21.1653337701694));
#1385=CARTESIAN_POINT('',(19.2967391971334,16.,24.0576668478318));
#1386=CARTESIAN_POINT('Origin',(33.2967391971334,13.,21.1653337701694));
#1387=CARTESIAN_POINT('',(34.8733695613138,13.,21.1653337701694));
#1388=CARTESIAN_POINT('',(34.8733695613138,16.,21.1653337701694));
#1389=CARTESIAN_POINT('Origin',(18.2067391971337,13.,50.2553337701692));
#1390=CARTESIAN_POINT('',(18.2067391971337,13.,50.2553337701692));
#1391=CARTESIAN_POINT('',(18.2067391971337,13.,36.2553337701692));
#1392=CARTESIAN_POINT('',(18.2067391971337,13.,38.6026668478317));
#1393=CARTESIAN_POINT('',(18.2067391971337,16.,50.2553337701692));
#1394=CARTESIAN_POINT('',(18.2067391971337,13.,50.2553337701692));
#1395=CARTESIAN_POINT('',(18.2067391971337,16.,36.2553337701692));
#1396=CARTESIAN_POINT('',(18.2067391971337,16.,38.6026668478317));
#1397=CARTESIAN_POINT('',(18.2067391971337,13.,36.2553337701692));
#1398=CARTESIAN_POINT('Origin',(4.20673919713372,13.,50.2553337701692));
#1399=CARTESIAN_POINT('',(4.20673919713372,13.,50.2553337701692));
#1400=CARTESIAN_POINT('',(20.328369561314,13.,50.2553337701692));
#1401=CARTESIAN_POINT('',(4.20673919713372,16.,50.2553337701692));
#1402=CARTESIAN_POINT('',(4.20673919713372,13.,50.2553337701692));
#1403=CARTESIAN_POINT('',(20.328369561314,16.,50.2553337701692));
#1404=CARTESIAN_POINT('Origin',(4.20673919713372,13.,36.2553337701692));
#1405=CARTESIAN_POINT('',(4.20673919713372,13.,36.2553337701692));
#1406=CARTESIAN_POINT('',(4.20673919713372,13.,31.6026668478317));
#1407=CARTESIAN_POINT('',(4.20673919713372,16.,36.2553337701692));
#1408=CARTESIAN_POINT('',(4.20673919713372,13.,36.2553337701692));
#1409=CARTESIAN_POINT('',(4.20673919713372,16.,31.6026668478317));
#1410=CARTESIAN_POINT('Origin',(18.2067391971337,13.,36.2553337701692));
#1411=CARTESIAN_POINT('',(27.328369561314,13.,36.2553337701692));
#1412=CARTESIAN_POINT('',(27.328369561314,16.,36.2553337701692));
#1413=CARTESIAN_POINT('Origin',(-5.00000007450581,13.,58.9));
#1414=CARTESIAN_POINT('',(-3.55000007450581,16.,58.9));
#1415=CARTESIAN_POINT('Origin',(-5.00000007450581,16.,58.9));
#1416=CARTESIAN_POINT('',(-3.55000007450581,13.,58.9));
#1417=CARTESIAN_POINT('',(-3.55000007450581,13.,58.9));
#1418=CARTESIAN_POINT('Origin',(-5.00000007450581,13.,58.9));
#1419=CARTESIAN_POINT('Origin',(-5.00000007450581,13.,-5.00000007450581));
#1420=CARTESIAN_POINT('',(-3.55000007450581,16.,-5.00000007450581));
#1421=CARTESIAN_POINT('Origin',(-5.00000007450581,16.,-5.00000007450581));
#1422=CARTESIAN_POINT('',(-3.55000007450581,13.,-5.00000007450581));
#1423=CARTESIAN_POINT('',(-3.55000007450581,13.,-5.00000007450581));
#1424=CARTESIAN_POINT('Origin',(-5.00000007450581,13.,-5.00000007450581));
#1425=CARTESIAN_POINT('Origin',(77.9,13.,58.9));
#1426=CARTESIAN_POINT('',(79.35,16.,58.9));
#1427=CARTESIAN_POINT('Origin',(77.9,16.,58.9));
#1428=CARTESIAN_POINT('',(79.35,13.,58.9));
#1429=CARTESIAN_POINT('',(79.35,13.,58.9));
#1430=CARTESIAN_POINT('Origin',(77.9,13.,58.9));
#1431=CARTESIAN_POINT('Origin',(77.9,13.,-5.00000014900581));
#1432=CARTESIAN_POINT('',(79.35,16.,-5.00000014900581));
#1433=CARTESIAN_POINT('Origin',(77.9,16.,-5.00000014900581));
#1434=CARTESIAN_POINT('',(79.35,13.,-5.00000014900581));
#1435=CARTESIAN_POINT('',(79.35,13.,-5.00000014900581));
#1436=CARTESIAN_POINT('Origin',(77.9,13.,-5.00000014900581));
#1437=CARTESIAN_POINT('Origin',(82.9,13.,-10.0000001490116));
#1438=CARTESIAN_POINT('',(82.9,13.,-10.0000001490116));
#1439=CARTESIAN_POINT('',(-10.0000001490116,13.,-10.0000001490116));
#1440=CARTESIAN_POINT('',(82.9,13.,-10.0000001490116));
#1441=CARTESIAN_POINT('',(-10.0000001490116,16.,-10.0000001490116));
#1442=CARTESIAN_POINT('',(-10.0000001490116,13.,-10.0000001490116));
#1443=CARTESIAN_POINT('',(82.9,16.,-10.0000001490116));
#1444=CARTESIAN_POINT('',(82.9,16.,-10.0000001490116));
#1445=CARTESIAN_POINT('',(82.9,13.,-10.0000001490116));
#1446=CARTESIAN_POINT('Origin',(82.9,13.,63.9));
#1447=CARTESIAN_POINT('',(82.9,13.,63.9));
#1448=CARTESIAN_POINT('',(82.9,13.,63.9));
#1449=CARTESIAN_POINT('',(82.9,16.,63.9));
#1450=CARTESIAN_POINT('',(82.9,16.,63.9));
#1451=CARTESIAN_POINT('',(82.9,13.,63.9));
#1452=CARTESIAN_POINT('Origin',(-10.0000001490116,13.,63.9));
#1453=CARTESIAN_POINT('',(-10.0000001490116,13.,63.9));
#1454=CARTESIAN_POINT('',(-10.0000001490116,13.,63.9));
#1455=CARTESIAN_POINT('',(-10.0000001490116,16.,63.9));
#1456=CARTESIAN_POINT('',(-10.0000001490116,16.,63.9));
#1457=CARTESIAN_POINT('',(-10.0000001490116,13.,63.9));
#1458=CARTESIAN_POINT('Origin',(-10.0000001490116,13.,-10.0000001490116));
#1459=CARTESIAN_POINT('',(-10.0000001490116,13.,-10.0000001490116));
#1460=CARTESIAN_POINT('',(-10.0000001490116,16.,-10.0000001490116));
#1461=CARTESIAN_POINT('Origin',(36.4499999254942,16.,26.9499999254942));
#1462=CARTESIAN_POINT('Origin',(36.4499999254942,13.,26.9499999254942));
#1463=UNCERTAINTY_MEASURE_WITH_UNIT(LENGTH_MEASURE(0.01),#1467,
'DISTANCE_ACCURACY_VALUE',
'Maximum model space distance between geometric entities at asserted c
onnectivities');
#1464=UNCERTAINTY_MEASURE_WITH_UNIT(LENGTH_MEASURE(0.01),#1467,
'DISTANCE_ACCURACY_VALUE',
'Maximum model space distance between geometric entities at asserted c
onnectivities');
#1465=(
GEOMETRIC_REPRESENTATION_CONTEXT(3)
GLOBAL_UNCERTAINTY_ASSIGNED_CONTEXT((#1463))
GLOBAL_UNIT_ASSIGNED_CONTEXT((#1467,#1469,#1470))
REPRESENTATION_CONTEXT('','3D')
);
#1466=(
GEOMETRIC_REPRESENTATION_CONTEXT(3)
GLOBAL_UNCERTAINTY_ASSIGNED_CONTEXT((#1464))
GLOBAL_UNIT_ASSIGNED_CONTEXT((#1467,#1469,#1470))
REPRESENTATION_CONTEXT('','3D')
);
#1467=(
LENGTH_UNIT()
NAMED_UNIT(*)
SI_UNIT(.MILLI.,.METRE.)
);
#1468=(
LENGTH_UNIT()
NAMED_UNIT(*)
SI_UNIT($,.METRE.)
);
#1469=(
NAMED_UNIT(*)
PLANE_ANGLE_UNIT()
SI_UNIT($,.RADIAN.)
);
#1470=(
NAMED_UNIT(*)
SI_UNIT($,.STERADIAN.)
SOLID_ANGLE_UNIT()
);
#1471=SHAPE_DEFINITION_REPRESENTATION(#1472,#1473);
#1472=PRODUCT_DEFINITION_SHAPE('',$,#1475);
#1473=SHAPE_REPRESENTATION('',(#939),#1465);
#1474=PRODUCT_DEFINITION_CONTEXT('part definition',#1479,'design');
#1475=PRODUCT_DEFINITION('2026-08-02-23-54-28-841','My simple macropad',
#1476,#1474);
#1476=PRODUCT_DEFINITION_FORMATION('',$,#1481);
#1477=PRODUCT_RELATED_PRODUCT_CATEGORY('My simple macropad',
'My simple macropad',(#1481));
#1478=APPLICATION_PROTOCOL_DEFINITION('international standard',
'automotive_design',2009,#1479);
#1479=APPLICATION_CONTEXT(
'Core Data for Automotive Mechanical Design Process');
#1480=PRODUCT_CONTEXT('part definition',#1479,'mechanical');
#1481=PRODUCT('2026-08-02-23-54-28-841','My simple macropad',$,(#1480));
#1482=PRESENTATION_STYLE_ASSIGNMENT((#1483));
#1483=SURFACE_STYLE_USAGE(.BOTH.,#1484);
#1484=SURFACE_SIDE_STYLE('',(#1485));
#1485=SURFACE_STYLE_FILL_AREA(#1486);
#1486=FILL_AREA_STYLE('Steel - Satin',(#1487));
#1487=FILL_AREA_STYLE_COLOUR('Steel - Satin',#1488);
#1488=COLOUR_RGB('Steel - Satin',0.627450980392157,0.627450980392157,0.627450980392157);
ENDSEC;
END-ISO-10303-21;
