ISO-10303-21;
HEADER;
/* Generated by software containing ST-Developer
 * from STEP Tools, Inc. (www.steptools.com) 
 */

FILE_DESCRIPTION(
/* description */ (''),
/* implementation_level */ '2;1');

FILE_NAME(
/* name */ 'My simple macropad bottom case.step',
/* time_stamp */ '2026-09-09T15:05:51+01:00',
/* author */ (''),
/* organization */ (''),
/* preprocessor_version */ 'ST-DEVELOPER v20.2',
/* originating_system */ 'Autodesk Translation Framework v15.15.0.0',
/* authorisation */ '');

FILE_SCHEMA (('AUTOMOTIVE_DESIGN { 1 0 10303 214 3 1 1 }'));
ENDSEC;

DATA;
#10=MECHANICAL_DESIGN_GEOMETRIC_PRESENTATION_REPRESENTATION('',(#13),#648);
#11=SHAPE_REPRESENTATION_RELATIONSHIP('SRR','None',#655,#12);
#12=ADVANCED_BREP_SHAPE_REPRESENTATION('',(#14),#647);
#13=STYLED_ITEM('',(#664),#14);
#14=MANIFOLD_SOLID_BREP('Body1',#392);
#15=FACE_BOUND('',#77,.T.);
#16=FACE_BOUND('',#78,.T.);
#17=FACE_BOUND('',#79,.T.);
#18=FACE_BOUND('',#80,.T.);
#19=FACE_BOUND('',#82,.T.);
#20=FACE_BOUND('',#84,.T.);
#21=FACE_BOUND('',#85,.T.);
#22=FACE_BOUND('',#86,.T.);
#23=FACE_BOUND('',#87,.T.);
#24=PLANE('',#409);
#25=PLANE('',#410);
#26=PLANE('',#411);
#27=PLANE('',#412);
#28=PLANE('',#413);
#29=PLANE('',#414);
#30=PLANE('',#421);
#31=PLANE('',#422);
#32=PLANE('',#429);
#33=PLANE('',#430);
#34=PLANE('',#431);
#35=PLANE('',#432);
#36=PLANE('',#433);
#37=PLANE('',#434);
#38=PLANE('',#435);
#39=FACE_OUTER_BOUND('',#59,.T.);
#40=FACE_OUTER_BOUND('',#60,.T.);
#41=FACE_OUTER_BOUND('',#61,.T.);
#42=FACE_OUTER_BOUND('',#62,.T.);
#43=FACE_OUTER_BOUND('',#63,.T.);
#44=FACE_OUTER_BOUND('',#64,.T.);
#45=FACE_OUTER_BOUND('',#65,.T.);
#46=FACE_OUTER_BOUND('',#66,.T.);
#47=FACE_OUTER_BOUND('',#67,.T.);
#48=FACE_OUTER_BOUND('',#68,.T.);
#49=FACE_OUTER_BOUND('',#69,.T.);
#50=FACE_OUTER_BOUND('',#70,.T.);
#51=FACE_OUTER_BOUND('',#71,.T.);
#52=FACE_OUTER_BOUND('',#72,.T.);
#53=FACE_OUTER_BOUND('',#73,.T.);
#54=FACE_OUTER_BOUND('',#74,.T.);
#55=FACE_OUTER_BOUND('',#75,.T.);
#56=FACE_OUTER_BOUND('',#76,.T.);
#57=FACE_OUTER_BOUND('',#81,.T.);
#58=FACE_OUTER_BOUND('',#83,.T.);
#59=EDGE_LOOP('',(#265,#266,#267,#268));
#60=EDGE_LOOP('',(#269));
#61=EDGE_LOOP('',(#270,#271,#272,#273));
#62=EDGE_LOOP('',(#274,#275,#276,#277));
#63=EDGE_LOOP('',(#278,#279,#280,#281));
#64=EDGE_LOOP('',(#282,#283,#284,#285));
#65=EDGE_LOOP('',(#286,#287,#288,#289));
#66=EDGE_LOOP('',(#290,#291,#292,#293));
#67=EDGE_LOOP('',(#294,#295,#296,#297));
#68=EDGE_LOOP('',(#298,#299,#300,#301));
#69=EDGE_LOOP('',(#302,#303,#304,#305));
#70=EDGE_LOOP('',(#306,#307,#308,#309));
#71=EDGE_LOOP('',(#310,#311,#312,#313));
#72=EDGE_LOOP('',(#314,#315,#316,#317));
#73=EDGE_LOOP('',(#318,#319,#320,#321));
#74=EDGE_LOOP('',(#322,#323,#324,#325,#326,#327,#328,#329));
#75=EDGE_LOOP('',(#330,#331,#332,#333));
#76=EDGE_LOOP('',(#334,#335,#336,#337,#338,#339,#340,#341,#342,#343,#344,
#345));
#77=EDGE_LOOP('',(#346));
#78=EDGE_LOOP('',(#347));
#79=EDGE_LOOP('',(#348));
#80=EDGE_LOOP('',(#349));
#81=EDGE_LOOP('',(#350,#351,#352,#353,#354,#355,#356,#357));
#82=EDGE_LOOP('',(#358));
#83=EDGE_LOOP('',(#359,#360,#361,#362));
#84=EDGE_LOOP('',(#363));
#85=EDGE_LOOP('',(#364));
#86=EDGE_LOOP('',(#365));
#87=EDGE_LOOP('',(#366));
#88=LINE('',#544,#129);
#89=LINE('',#550,#130);
#90=LINE('',#552,#131);
#91=LINE('',#554,#132);
#92=LINE('',#555,#133);
#93=LINE('',#559,#134);
#94=LINE('',#561,#135);
#95=LINE('',#563,#136);
#96=LINE('',#564,#137);
#97=LINE('',#567,#138);
#98=LINE('',#569,#139);
#99=LINE('',#570,#140);
#100=LINE('',#573,#141);
#101=LINE('',#575,#142);
#102=LINE('',#576,#143);
#103=LINE('',#579,#144);
#104=LINE('',#581,#145);
#105=LINE('',#582,#146);
#106=LINE('',#587,#147);
#107=LINE('',#593,#148);
#108=LINE('',#597,#149);
#109=LINE('',#599,#150);
#110=LINE('',#600,#151);
#111=LINE('',#602,#152);
#112=LINE('',#603,#153);
#113=LINE('',#608,#154);
#114=LINE('',#614,#155);
#115=LINE('',#619,#156);
#116=LINE('',#621,#157);
#117=LINE('',#623,#158);
#118=LINE('',#624,#159);
#119=LINE('',#627,#160);
#120=LINE('',#629,#161);
#121=LINE('',#630,#162);
#122=LINE('',#633,#163);
#123=LINE('',#635,#164);
#124=LINE('',#636,#165);
#125=LINE('',#637,#166);
#126=LINE('',#638,#167);
#127=LINE('',#640,#168);
#128=LINE('',#641,#169);
#129=VECTOR('',#442,2.5);
#130=VECTOR('',#449,10.);
#131=VECTOR('',#450,10.);
#132=VECTOR('',#451,10.);
#133=VECTOR('',#452,10.);
#134=VECTOR('',#455,10.);
#135=VECTOR('',#456,10.);
#136=VECTOR('',#457,10.);
#137=VECTOR('',#458,10.);
#138=VECTOR('',#461,10.);
#139=VECTOR('',#462,10.);
#140=VECTOR('',#463,10.);
#141=VECTOR('',#466,10.);
#142=VECTOR('',#467,10.);
#143=VECTOR('',#468,10.);
#144=VECTOR('',#471,10.);
#145=VECTOR('',#472,10.);
#146=VECTOR('',#473,10.);
#147=VECTOR('',#478,1.45);
#148=VECTOR('',#485,1.45);
#149=VECTOR('',#490,10.);
#150=VECTOR('',#491,10.);
#151=VECTOR('',#492,10.);
#152=VECTOR('',#495,10.);
#153=VECTOR('',#496,10.);
#154=VECTOR('',#501,1.45);
#155=VECTOR('',#508,1.45);
#156=VECTOR('',#513,10.);
#157=VECTOR('',#514,10.);
#158=VECTOR('',#515,10.);
#159=VECTOR('',#516,10.);
#160=VECTOR('',#519,10.);
#161=VECTOR('',#520,10.);
#162=VECTOR('',#521,10.);
#163=VECTOR('',#524,10.);
#164=VECTOR('',#525,10.);
#165=VECTOR('',#526,10.);
#166=VECTOR('',#527,10.);
#167=VECTOR('',#528,10.);
#168=VECTOR('',#531,10.);
#169=VECTOR('',#532,10.);
#170=CIRCLE('',#407,2.5);
#171=CIRCLE('',#408,2.5);
#172=CIRCLE('',#416,1.45);
#173=CIRCLE('',#417,1.45);
#174=CIRCLE('',#419,1.45);
#175=CIRCLE('',#420,1.45);
#176=CIRCLE('',#424,1.45);
#177=CIRCLE('',#425,1.45);
#178=CIRCLE('',#427,1.45);
#179=CIRCLE('',#428,1.45);
#180=VERTEX_POINT('',#541);
#181=VERTEX_POINT('',#543);
#182=VERTEX_POINT('',#548);
#183=VERTEX_POINT('',#549);
#184=VERTEX_POINT('',#551);
#185=VERTEX_POINT('',#553);
#186=VERTEX_POINT('',#557);
#187=VERTEX_POINT('',#558);
#188=VERTEX_POINT('',#560);
#189=VERTEX_POINT('',#562);
#190=VERTEX_POINT('',#566);
#191=VERTEX_POINT('',#568);
#192=VERTEX_POINT('',#572);
#193=VERTEX_POINT('',#574);
#194=VERTEX_POINT('',#578);
#195=VERTEX_POINT('',#580);
#196=VERTEX_POINT('',#584);
#197=VERTEX_POINT('',#586);
#198=VERTEX_POINT('',#590);
#199=VERTEX_POINT('',#592);
#200=VERTEX_POINT('',#596);
#201=VERTEX_POINT('',#598);
#202=VERTEX_POINT('',#605);
#203=VERTEX_POINT('',#607);
#204=VERTEX_POINT('',#611);
#205=VERTEX_POINT('',#613);
#206=VERTEX_POINT('',#617);
#207=VERTEX_POINT('',#618);
#208=VERTEX_POINT('',#620);
#209=VERTEX_POINT('',#622);
#210=VERTEX_POINT('',#626);
#211=VERTEX_POINT('',#628);
#212=VERTEX_POINT('',#632);
#213=VERTEX_POINT('',#634);
#214=EDGE_CURVE('',#180,#180,#170,.T.);
#215=EDGE_CURVE('',#180,#181,#88,.T.);
#216=EDGE_CURVE('',#181,#181,#171,.T.);
#217=EDGE_CURVE('',#182,#183,#89,.T.);
#218=EDGE_CURVE('',#184,#182,#90,.T.);
#219=EDGE_CURVE('',#185,#184,#91,.T.);
#220=EDGE_CURVE('',#183,#185,#92,.T.);
#221=EDGE_CURVE('',#186,#187,#93,.T.);
#222=EDGE_CURVE('',#186,#188,#94,.T.);
#223=EDGE_CURVE('',#189,#188,#95,.T.);
#224=EDGE_CURVE('',#187,#189,#96,.T.);
#225=EDGE_CURVE('',#190,#184,#97,.T.);
#226=EDGE_CURVE('',#191,#190,#98,.T.);
#227=EDGE_CURVE('',#185,#191,#99,.T.);
#228=EDGE_CURVE('',#192,#188,#100,.T.);
#229=EDGE_CURVE('',#192,#193,#101,.T.);
#230=EDGE_CURVE('',#189,#193,#102,.T.);
#231=EDGE_CURVE('',#194,#192,#103,.T.);
#232=EDGE_CURVE('',#194,#195,#104,.T.);
#233=EDGE_CURVE('',#193,#195,#105,.T.);
#234=EDGE_CURVE('',#196,#196,#172,.T.);
#235=EDGE_CURVE('',#196,#197,#106,.T.);
#236=EDGE_CURVE('',#197,#197,#173,.T.);
#237=EDGE_CURVE('',#198,#198,#174,.T.);
#238=EDGE_CURVE('',#198,#199,#107,.T.);
#239=EDGE_CURVE('',#199,#199,#175,.T.);
#240=EDGE_CURVE('',#191,#200,#108,.T.);
#241=EDGE_CURVE('',#201,#190,#109,.T.);
#242=EDGE_CURVE('',#200,#201,#110,.T.);
#243=EDGE_CURVE('',#200,#194,#111,.T.);
#244=EDGE_CURVE('',#195,#201,#112,.T.);
#245=EDGE_CURVE('',#202,#202,#176,.T.);
#246=EDGE_CURVE('',#202,#203,#113,.T.);
#247=EDGE_CURVE('',#203,#203,#177,.T.);
#248=EDGE_CURVE('',#204,#204,#178,.T.);
#249=EDGE_CURVE('',#204,#205,#114,.T.);
#250=EDGE_CURVE('',#205,#205,#179,.T.);
#251=EDGE_CURVE('',#206,#207,#115,.T.);
#252=EDGE_CURVE('',#206,#208,#116,.T.);
#253=EDGE_CURVE('',#209,#208,#117,.T.);
#254=EDGE_CURVE('',#207,#209,#118,.T.);
#255=EDGE_CURVE('',#207,#210,#119,.T.);
#256=EDGE_CURVE('',#211,#209,#120,.T.);
#257=EDGE_CURVE('',#210,#211,#121,.T.);
#258=EDGE_CURVE('',#212,#187,#122,.T.);
#259=EDGE_CURVE('',#213,#212,#123,.T.);
#260=EDGE_CURVE('',#210,#213,#124,.T.);
#261=EDGE_CURVE('',#182,#211,#125,.T.);
#262=EDGE_CURVE('',#183,#186,#126,.T.);
#263=EDGE_CURVE('',#213,#206,#127,.T.);
#264=EDGE_CURVE('',#208,#212,#128,.T.);
#265=ORIENTED_EDGE('',*,*,#214,.F.);
#266=ORIENTED_EDGE('',*,*,#215,.T.);
#267=ORIENTED_EDGE('',*,*,#216,.F.);
#268=ORIENTED_EDGE('',*,*,#215,.F.);
#269=ORIENTED_EDGE('',*,*,#214,.T.);
#270=ORIENTED_EDGE('',*,*,#217,.F.);
#271=ORIENTED_EDGE('',*,*,#218,.F.);
#272=ORIENTED_EDGE('',*,*,#219,.F.);
#273=ORIENTED_EDGE('',*,*,#220,.F.);
#274=ORIENTED_EDGE('',*,*,#221,.F.);
#275=ORIENTED_EDGE('',*,*,#222,.T.);
#276=ORIENTED_EDGE('',*,*,#223,.F.);
#277=ORIENTED_EDGE('',*,*,#224,.F.);
#278=ORIENTED_EDGE('',*,*,#219,.T.);
#279=ORIENTED_EDGE('',*,*,#225,.F.);
#280=ORIENTED_EDGE('',*,*,#226,.F.);
#281=ORIENTED_EDGE('',*,*,#227,.F.);
#282=ORIENTED_EDGE('',*,*,#223,.T.);
#283=ORIENTED_EDGE('',*,*,#228,.F.);
#284=ORIENTED_EDGE('',*,*,#229,.T.);
#285=ORIENTED_EDGE('',*,*,#230,.F.);
#286=ORIENTED_EDGE('',*,*,#231,.F.);
#287=ORIENTED_EDGE('',*,*,#232,.T.);
#288=ORIENTED_EDGE('',*,*,#233,.F.);
#289=ORIENTED_EDGE('',*,*,#229,.F.);
#290=ORIENTED_EDGE('',*,*,#234,.F.);
#291=ORIENTED_EDGE('',*,*,#235,.T.);
#292=ORIENTED_EDGE('',*,*,#236,.T.);
#293=ORIENTED_EDGE('',*,*,#235,.F.);
#294=ORIENTED_EDGE('',*,*,#237,.F.);
#295=ORIENTED_EDGE('',*,*,#238,.T.);
#296=ORIENTED_EDGE('',*,*,#239,.T.);
#297=ORIENTED_EDGE('',*,*,#238,.F.);
#298=ORIENTED_EDGE('',*,*,#240,.F.);
#299=ORIENTED_EDGE('',*,*,#226,.T.);
#300=ORIENTED_EDGE('',*,*,#241,.F.);
#301=ORIENTED_EDGE('',*,*,#242,.F.);
#302=ORIENTED_EDGE('',*,*,#243,.F.);
#303=ORIENTED_EDGE('',*,*,#242,.T.);
#304=ORIENTED_EDGE('',*,*,#244,.F.);
#305=ORIENTED_EDGE('',*,*,#232,.F.);
#306=ORIENTED_EDGE('',*,*,#245,.F.);
#307=ORIENTED_EDGE('',*,*,#246,.T.);
#308=ORIENTED_EDGE('',*,*,#247,.T.);
#309=ORIENTED_EDGE('',*,*,#246,.F.);
#310=ORIENTED_EDGE('',*,*,#248,.F.);
#311=ORIENTED_EDGE('',*,*,#249,.T.);
#312=ORIENTED_EDGE('',*,*,#250,.T.);
#313=ORIENTED_EDGE('',*,*,#249,.F.);
#314=ORIENTED_EDGE('',*,*,#251,.F.);
#315=ORIENTED_EDGE('',*,*,#252,.T.);
#316=ORIENTED_EDGE('',*,*,#253,.F.);
#317=ORIENTED_EDGE('',*,*,#254,.F.);
#318=ORIENTED_EDGE('',*,*,#255,.F.);
#319=ORIENTED_EDGE('',*,*,#254,.T.);
#320=ORIENTED_EDGE('',*,*,#256,.F.);
#321=ORIENTED_EDGE('',*,*,#257,.F.);
#322=ORIENTED_EDGE('',*,*,#221,.T.);
#323=ORIENTED_EDGE('',*,*,#258,.F.);
#324=ORIENTED_EDGE('',*,*,#259,.F.);
#325=ORIENTED_EDGE('',*,*,#260,.F.);
#326=ORIENTED_EDGE('',*,*,#257,.T.);
#327=ORIENTED_EDGE('',*,*,#261,.F.);
#328=ORIENTED_EDGE('',*,*,#217,.T.);
#329=ORIENTED_EDGE('',*,*,#262,.T.);
#330=ORIENTED_EDGE('',*,*,#263,.F.);
#331=ORIENTED_EDGE('',*,*,#259,.T.);
#332=ORIENTED_EDGE('',*,*,#264,.F.);
#333=ORIENTED_EDGE('',*,*,#252,.F.);
#334=ORIENTED_EDGE('',*,*,#224,.T.);
#335=ORIENTED_EDGE('',*,*,#230,.T.);
#336=ORIENTED_EDGE('',*,*,#233,.T.);
#337=ORIENTED_EDGE('',*,*,#244,.T.);
#338=ORIENTED_EDGE('',*,*,#241,.T.);
#339=ORIENTED_EDGE('',*,*,#225,.T.);
#340=ORIENTED_EDGE('',*,*,#218,.T.);
#341=ORIENTED_EDGE('',*,*,#261,.T.);
#342=ORIENTED_EDGE('',*,*,#256,.T.);
#343=ORIENTED_EDGE('',*,*,#253,.T.);
#344=ORIENTED_EDGE('',*,*,#264,.T.);
#345=ORIENTED_EDGE('',*,*,#258,.T.);
#346=ORIENTED_EDGE('',*,*,#248,.T.);
#347=ORIENTED_EDGE('',*,*,#245,.T.);
#348=ORIENTED_EDGE('',*,*,#237,.T.);
#349=ORIENTED_EDGE('',*,*,#234,.T.);
#350=ORIENTED_EDGE('',*,*,#231,.T.);
#351=ORIENTED_EDGE('',*,*,#228,.T.);
#352=ORIENTED_EDGE('',*,*,#222,.F.);
#353=ORIENTED_EDGE('',*,*,#262,.F.);
#354=ORIENTED_EDGE('',*,*,#220,.T.);
#355=ORIENTED_EDGE('',*,*,#227,.T.);
#356=ORIENTED_EDGE('',*,*,#240,.T.);
#357=ORIENTED_EDGE('',*,*,#243,.T.);
#358=ORIENTED_EDGE('',*,*,#216,.T.);
#359=ORIENTED_EDGE('',*,*,#263,.T.);
#360=ORIENTED_EDGE('',*,*,#251,.T.);
#361=ORIENTED_EDGE('',*,*,#255,.T.);
#362=ORIENTED_EDGE('',*,*,#260,.T.);
#363=ORIENTED_EDGE('',*,*,#236,.F.);
#364=ORIENTED_EDGE('',*,*,#239,.F.);
#365=ORIENTED_EDGE('',*,*,#247,.F.);
#366=ORIENTED_EDGE('',*,*,#250,.F.);
#367=CYLINDRICAL_SURFACE('',#406,2.5);
#368=CYLINDRICAL_SURFACE('',#415,1.45);
#369=CYLINDRICAL_SURFACE('',#418,1.45);
#370=CYLINDRICAL_SURFACE('',#423,1.45);
#371=CYLINDRICAL_SURFACE('',#426,1.45);
#372=ADVANCED_FACE('',(#39),#367,.T.);
#373=ADVANCED_FACE('',(#40),#24,.T.);
#374=ADVANCED_FACE('',(#41),#25,.F.);
#375=ADVANCED_FACE('',(#42),#26,.F.);
#376=ADVANCED_FACE('',(#43),#27,.T.);
#377=ADVANCED_FACE('',(#44),#28,.T.);
#378=ADVANCED_FACE('',(#45),#29,.T.);
#379=ADVANCED_FACE('',(#46),#368,.F.);
#380=ADVANCED_FACE('',(#47),#369,.F.);
#381=ADVANCED_FACE('',(#48),#30,.T.);
#382=ADVANCED_FACE('',(#49),#31,.T.);
#383=ADVANCED_FACE('',(#50),#370,.F.);
#384=ADVANCED_FACE('',(#51),#371,.F.);
#385=ADVANCED_FACE('',(#52),#32,.T.);
#386=ADVANCED_FACE('',(#53),#33,.T.);
#387=ADVANCED_FACE('',(#54),#34,.T.);
#388=ADVANCED_FACE('',(#55),#35,.T.);
#389=ADVANCED_FACE('',(#56,#15,#16,#17,#18),#36,.T.);
#390=ADVANCED_FACE('',(#57,#19),#37,.T.);
#391=ADVANCED_FACE('',(#58,#20,#21,#22,#23),#38,.F.);
#392=CLOSED_SHELL('',(#372,#373,#374,#375,#376,#377,#378,#379,#380,#381,
#382,#383,#384,#385,#386,#387,#388,#389,#390,#391));
#393=DERIVED_UNIT_ELEMENT(#395,1.);
#394=DERIVED_UNIT_ELEMENT(#650,-3.);
#395=(
MASS_UNIT()
NAMED_UNIT(*)
SI_UNIT(.KILO.,.GRAM.)
);
#396=DERIVED_UNIT((#393,#394));
#397=MEASURE_REPRESENTATION_ITEM('density measure',
POSITIVE_RATIO_MEASURE(7850.),#396);
#398=PROPERTY_DEFINITION_REPRESENTATION(#403,#400);
#399=PROPERTY_DEFINITION_REPRESENTATION(#404,#401);
#400=REPRESENTATION('material name',(#402),#647);
#401=REPRESENTATION('density',(#397),#647);
#402=DESCRIPTIVE_REPRESENTATION_ITEM('Steel','Steel');
#403=PROPERTY_DEFINITION('material property','material name',#657);
#404=PROPERTY_DEFINITION('material property','density of part',#657);
#405=AXIS2_PLACEMENT_3D('',#539,#436,#437);
#406=AXIS2_PLACEMENT_3D('',#540,#438,#439);
#407=AXIS2_PLACEMENT_3D('',#542,#440,#441);
#408=AXIS2_PLACEMENT_3D('',#545,#443,#444);
#409=AXIS2_PLACEMENT_3D('',#546,#445,#446);
#410=AXIS2_PLACEMENT_3D('',#547,#447,#448);
#411=AXIS2_PLACEMENT_3D('',#556,#453,#454);
#412=AXIS2_PLACEMENT_3D('',#565,#459,#460);
#413=AXIS2_PLACEMENT_3D('',#571,#464,#465);
#414=AXIS2_PLACEMENT_3D('',#577,#469,#470);
#415=AXIS2_PLACEMENT_3D('',#583,#474,#475);
#416=AXIS2_PLACEMENT_3D('',#585,#476,#477);
#417=AXIS2_PLACEMENT_3D('',#588,#479,#480);
#418=AXIS2_PLACEMENT_3D('',#589,#481,#482);
#419=AXIS2_PLACEMENT_3D('',#591,#483,#484);
#420=AXIS2_PLACEMENT_3D('',#594,#486,#487);
#421=AXIS2_PLACEMENT_3D('',#595,#488,#489);
#422=AXIS2_PLACEMENT_3D('',#601,#493,#494);
#423=AXIS2_PLACEMENT_3D('',#604,#497,#498);
#424=AXIS2_PLACEMENT_3D('',#606,#499,#500);
#425=AXIS2_PLACEMENT_3D('',#609,#502,#503);
#426=AXIS2_PLACEMENT_3D('',#610,#504,#505);
#427=AXIS2_PLACEMENT_3D('',#612,#506,#507);
#428=AXIS2_PLACEMENT_3D('',#615,#509,#510);
#429=AXIS2_PLACEMENT_3D('',#616,#511,#512);
#430=AXIS2_PLACEMENT_3D('',#625,#517,#518);
#431=AXIS2_PLACEMENT_3D('',#631,#522,#523);
#432=AXIS2_PLACEMENT_3D('',#639,#529,#530);
#433=AXIS2_PLACEMENT_3D('',#642,#533,#534);
#434=AXIS2_PLACEMENT_3D('',#643,#535,#536);
#435=AXIS2_PLACEMENT_3D('',#644,#537,#538);
#436=DIRECTION('axis',(0.,0.,1.));
#437=DIRECTION('refdir',(1.,0.,0.));
#438=DIRECTION('center_axis',(0.,1.,0.));
#439=DIRECTION('ref_axis',(-1.,0.,0.));
#440=DIRECTION('center_axis',(0.,1.,0.));
#441=DIRECTION('ref_axis',(-1.,0.,0.));
#442=DIRECTION('',(0.,-1.,0.));
#443=DIRECTION('center_axis',(0.,-1.,0.));
#444=DIRECTION('ref_axis',(-1.,0.,0.));
#445=DIRECTION('center_axis',(0.,1.,0.));
#446=DIRECTION('ref_axis',(-1.,0.,0.));
#447=DIRECTION('center_axis',(0.,0.,-1.));
#448=DIRECTION('ref_axis',(0.,-1.,0.));
#449=DIRECTION('',(0.,-1.,0.));
#450=DIRECTION('',(1.,0.,0.));
#451=DIRECTION('',(0.,1.,0.));
#452=DIRECTION('',(-1.,0.,0.));
#453=DIRECTION('center_axis',(0.,0.,1.));
#454=DIRECTION('ref_axis',(0.,1.,0.));
#455=DIRECTION('',(0.,1.,0.));
#456=DIRECTION('',(-1.,0.,0.));
#457=DIRECTION('',(0.,-1.,0.));
#458=DIRECTION('',(-1.,0.,0.));
#459=DIRECTION('center_axis',(-1.,0.,0.));
#460=DIRECTION('ref_axis',(0.,0.,1.));
#461=DIRECTION('',(0.,0.,1.));
#462=DIRECTION('',(0.,1.,0.));
#463=DIRECTION('',(0.,0.,-1.));
#464=DIRECTION('center_axis',(-1.,0.,0.));
#465=DIRECTION('ref_axis',(0.,0.,1.));
#466=DIRECTION('',(0.,0.,-1.));
#467=DIRECTION('',(0.,1.,0.));
#468=DIRECTION('',(0.,0.,1.));
#469=DIRECTION('center_axis',(0.,0.,-1.));
#470=DIRECTION('ref_axis',(-1.,0.,0.));
#471=DIRECTION('',(1.,0.,0.));
#472=DIRECTION('',(0.,1.,0.));
#473=DIRECTION('',(-1.,0.,0.));
#474=DIRECTION('center_axis',(0.,1.,0.));
#475=DIRECTION('ref_axis',(1.,0.,0.));
#476=DIRECTION('center_axis',(0.,-1.,0.));
#477=DIRECTION('ref_axis',(1.,0.,0.));
#478=DIRECTION('',(0.,-1.,0.));
#479=DIRECTION('center_axis',(0.,-1.,0.));
#480=DIRECTION('ref_axis',(1.,0.,0.));
#481=DIRECTION('center_axis',(0.,1.,0.));
#482=DIRECTION('ref_axis',(1.,0.,0.));
#483=DIRECTION('center_axis',(0.,-1.,0.));
#484=DIRECTION('ref_axis',(1.,0.,0.));
#485=DIRECTION('',(0.,-1.,0.));
#486=DIRECTION('center_axis',(0.,-1.,0.));
#487=DIRECTION('ref_axis',(1.,0.,0.));
#488=DIRECTION('center_axis',(2.04405503344961E-9,0.,1.));
#489=DIRECTION('ref_axis',(1.,0.,-2.04405503344961E-9));
#490=DIRECTION('',(-1.,0.,2.04405503344961E-9));
#491=DIRECTION('',(1.,0.,-2.04405503344961E-9));
#492=DIRECTION('',(0.,1.,0.));
#493=DIRECTION('center_axis',(1.,0.,0.));
#494=DIRECTION('ref_axis',(0.,0.,-1.));
#495=DIRECTION('',(0.,0.,1.));
#496=DIRECTION('',(0.,0.,-1.));
#497=DIRECTION('center_axis',(0.,1.,0.));
#498=DIRECTION('ref_axis',(1.,0.,0.));
#499=DIRECTION('center_axis',(0.,-1.,0.));
#500=DIRECTION('ref_axis',(1.,0.,0.));
#501=DIRECTION('',(0.,-1.,0.));
#502=DIRECTION('center_axis',(0.,-1.,0.));
#503=DIRECTION('ref_axis',(1.,0.,0.));
#504=DIRECTION('center_axis',(0.,1.,0.));
#505=DIRECTION('ref_axis',(1.,0.,0.));
#506=DIRECTION('center_axis',(0.,-1.,0.));
#507=DIRECTION('ref_axis',(1.,0.,0.));
#508=DIRECTION('',(0.,-1.,0.));
#509=DIRECTION('center_axis',(0.,-1.,0.));
#510=DIRECTION('ref_axis',(1.,0.,0.));
#511=DIRECTION('center_axis',(-1.,0.,0.));
#512=DIRECTION('ref_axis',(0.,0.,1.));
#513=DIRECTION('',(0.,0.,-1.));
#514=DIRECTION('',(0.,1.,0.));
#515=DIRECTION('',(0.,0.,1.));
#516=DIRECTION('',(0.,1.,0.));
#517=DIRECTION('center_axis',(0.,0.,-1.));
#518=DIRECTION('ref_axis',(-1.,0.,0.));
#519=DIRECTION('',(1.,0.,0.));
#520=DIRECTION('',(-1.,0.,0.));
#521=DIRECTION('',(0.,1.,0.));
#522=DIRECTION('center_axis',(1.,0.,0.));
#523=DIRECTION('ref_axis',(0.,0.,-1.));
#524=DIRECTION('',(0.,0.,-1.));
#525=DIRECTION('',(0.,1.,0.));
#526=DIRECTION('',(0.,0.,1.));
#527=DIRECTION('',(0.,0.,-1.));
#528=DIRECTION('',(0.,0.,1.));
#529=DIRECTION('center_axis',(0.,0.,1.));
#530=DIRECTION('ref_axis',(1.,0.,0.));
#531=DIRECTION('',(-1.,0.,0.));
#532=DIRECTION('',(1.,0.,0.));
#533=DIRECTION('center_axis',(0.,1.,0.));
#534=DIRECTION('ref_axis',(1.,0.,0.));
#535=DIRECTION('center_axis',(0.,1.,0.));
#536=DIRECTION('ref_axis',(0.,0.,1.));
#537=DIRECTION('center_axis',(0.,1.,0.));
#538=DIRECTION('ref_axis',(1.,0.,0.));
#539=CARTESIAN_POINT('',(0.,0.,0.));
#540=CARTESIAN_POINT('Origin',(40.,3.,25.));
#541=CARTESIAN_POINT('',(42.5,5.,25.));
#542=CARTESIAN_POINT('Origin',(40.,5.,25.));
#543=CARTESIAN_POINT('',(42.5,3.,25.));
#544=CARTESIAN_POINT('',(42.5,3.,25.));
#545=CARTESIAN_POINT('Origin',(40.,3.,25.));
#546=CARTESIAN_POINT('Origin',(40.,5.,25.));
#547=CARTESIAN_POINT('Origin',(82.9,13.,26.000000372529));
#548=CARTESIAN_POINT('',(82.9,13.,26.000000372529));
#549=CARTESIAN_POINT('',(82.9,3.00000004470348,26.000000372529));
#550=CARTESIAN_POINT('',(82.9,6.5,26.000000372529));
#551=CARTESIAN_POINT('',(72.9,13.,26.000000372529));
#552=CARTESIAN_POINT('',(59.6749999627471,13.,26.000000372529));
#553=CARTESIAN_POINT('',(72.9,3.00000004470348,26.000000372529));
#554=CARTESIAN_POINT('',(72.9,6.5,26.000000372529));
#555=CARTESIAN_POINT('',(82.9,3.00000004470348,26.000000372529));
#556=CARTESIAN_POINT('Origin',(82.9,3.00000004470348,46.0000006705523));
#557=CARTESIAN_POINT('',(82.9,3.00000004470348,46.0000006705523));
#558=CARTESIAN_POINT('',(82.9,13.,46.0000006705523));
#559=CARTESIAN_POINT('',(82.9,1.50000002235174,46.0000006705523));
#560=CARTESIAN_POINT('',(72.9,3.00000004470348,46.0000006705523));
#561=CARTESIAN_POINT('',(82.9,3.00000004470348,46.0000006705523));
#562=CARTESIAN_POINT('',(72.9,13.,46.0000006705523));
#563=CARTESIAN_POINT('',(72.9,1.50000002235174,46.0000006705523));
#564=CARTESIAN_POINT('',(59.6749999627471,13.,46.0000006705523));
#565=CARTESIAN_POINT('Origin',(72.9,0.,-1.49011611938477E-7));
#566=CARTESIAN_POINT('',(72.9,13.,-1.49011611938477E-7));
#567=CARTESIAN_POINT('',(72.9,13.,-1.49011611938477E-7));
#568=CARTESIAN_POINT('',(72.9,3.,-1.49011611938477E-7));
#569=CARTESIAN_POINT('',(72.9,0.,-1.49011611938477E-7));
#570=CARTESIAN_POINT('',(72.9,3.,-1.49011611938477E-7));
#571=CARTESIAN_POINT('Origin',(72.9,0.,-1.49011611938477E-7));
#572=CARTESIAN_POINT('',(72.9,3.,53.8999998509884));
#573=CARTESIAN_POINT('',(72.9,3.,-1.49011611938477E-7));
#574=CARTESIAN_POINT('',(72.9,13.,53.8999998509884));
#575=CARTESIAN_POINT('',(72.9,0.,53.8999998509884));
#576=CARTESIAN_POINT('',(72.9,13.,-1.49011611938477E-7));
#577=CARTESIAN_POINT('Origin',(72.9,0.,53.8999998509884));
#578=CARTESIAN_POINT('',(0.,3.,53.8999998509884));
#579=CARTESIAN_POINT('',(72.9,3.,53.8999998509884));
#580=CARTESIAN_POINT('',(0.,13.,53.8999998509884));
#581=CARTESIAN_POINT('',(0.,0.,53.8999998509884));
#582=CARTESIAN_POINT('',(72.9,13.,53.8999998509884));
#583=CARTESIAN_POINT('Origin',(-5.00000007450581,0.,58.9));
#584=CARTESIAN_POINT('',(-6.45000007450581,13.,58.9));
#585=CARTESIAN_POINT('Origin',(-5.00000007450581,13.,58.9));
#586=CARTESIAN_POINT('',(-6.45000007450581,0.,58.9));
#587=CARTESIAN_POINT('',(-6.45000007450581,0.,58.9));
#588=CARTESIAN_POINT('Origin',(-5.00000007450581,0.,58.9));
#589=CARTESIAN_POINT('Origin',(77.9,0.,58.9));
#590=CARTESIAN_POINT('',(76.45,13.,58.9));
#591=CARTESIAN_POINT('Origin',(77.9,13.,58.9));
#592=CARTESIAN_POINT('',(76.45,0.,58.9));
#593=CARTESIAN_POINT('',(76.45,0.,58.9));
#594=CARTESIAN_POINT('Origin',(77.9,0.,58.9));
#595=CARTESIAN_POINT('Origin',(0.,0.,0.));
#596=CARTESIAN_POINT('',(0.,3.,0.));
#597=CARTESIAN_POINT('',(0.,3.,0.));
#598=CARTESIAN_POINT('',(0.,13.,0.));
#599=CARTESIAN_POINT('',(0.,13.,0.));
#600=CARTESIAN_POINT('',(0.,0.,0.));
#601=CARTESIAN_POINT('Origin',(0.,0.,53.8999998509884));
#602=CARTESIAN_POINT('',(0.,3.,53.8999998509884));
#603=CARTESIAN_POINT('',(0.,13.,53.8999998509884));
#604=CARTESIAN_POINT('Origin',(77.9,0.,-5.00000014900581));
#605=CARTESIAN_POINT('',(76.45,13.,-5.00000014900581));
#606=CARTESIAN_POINT('Origin',(77.9,13.,-5.00000014900581));
#607=CARTESIAN_POINT('',(76.45,0.,-5.00000014900581));
#608=CARTESIAN_POINT('',(76.45,0.,-5.00000014900581));
#609=CARTESIAN_POINT('Origin',(77.9,0.,-5.00000014900581));
#610=CARTESIAN_POINT('Origin',(-5.00000007450581,0.,-5.00000007450581));
#611=CARTESIAN_POINT('',(-6.45000007450581,13.,-5.00000007450581));
#612=CARTESIAN_POINT('Origin',(-5.00000007450581,13.,-5.00000007450581));
#613=CARTESIAN_POINT('',(-6.45000007450581,0.,-5.00000007450581));
#614=CARTESIAN_POINT('',(-6.45000007450581,0.,-5.00000007450581));
#615=CARTESIAN_POINT('Origin',(-5.00000007450581,0.,-5.00000007450581));
#616=CARTESIAN_POINT('Origin',(-10.0000001490116,0.,-10.0000001490116));
#617=CARTESIAN_POINT('',(-10.0000001490116,0.,63.9));
#618=CARTESIAN_POINT('',(-10.0000001490116,0.,-10.0000001490116));
#619=CARTESIAN_POINT('',(-10.0000001490116,0.,63.9));
#620=CARTESIAN_POINT('',(-10.0000001490116,13.,63.9));
#621=CARTESIAN_POINT('',(-10.0000001490116,0.,63.9));
#622=CARTESIAN_POINT('',(-10.0000001490116,13.,-10.0000001490116));
#623=CARTESIAN_POINT('',(-10.0000001490116,13.,63.9));
#624=CARTESIAN_POINT('',(-10.0000001490116,0.,-10.0000001490116));
#625=CARTESIAN_POINT('Origin',(82.9,0.,-10.0000001490116));
#626=CARTESIAN_POINT('',(82.9,0.,-10.0000001490116));
#627=CARTESIAN_POINT('',(-10.0000001490116,0.,-10.0000001490116));
#628=CARTESIAN_POINT('',(82.9,13.,-10.0000001490116));
#629=CARTESIAN_POINT('',(-10.0000001490116,13.,-10.0000001490116));
#630=CARTESIAN_POINT('',(82.9,0.,-10.0000001490116));
#631=CARTESIAN_POINT('Origin',(82.9,0.,63.9));
#632=CARTESIAN_POINT('',(82.9,13.,63.9));
#633=CARTESIAN_POINT('',(82.9,13.,-10.0000001490116));
#634=CARTESIAN_POINT('',(82.9,0.,63.9));
#635=CARTESIAN_POINT('',(82.9,0.,63.9));
#636=CARTESIAN_POINT('',(82.9,0.,-10.0000001490116));
#637=CARTESIAN_POINT('',(82.9,13.,-10.0000001490116));
#638=CARTESIAN_POINT('',(82.9,3.00000004470348,44.9500001862645));
#639=CARTESIAN_POINT('Origin',(-10.0000001490116,0.,63.9));
#640=CARTESIAN_POINT('',(82.9,0.,63.9));
#641=CARTESIAN_POINT('',(82.9,13.,63.9));
#642=CARTESIAN_POINT('Origin',(36.4499999254942,13.,26.9499999254942));
#643=CARTESIAN_POINT('Origin',(36.45,3.,26.9499998509884));
#644=CARTESIAN_POINT('Origin',(36.45,0.,26.9499998509884));
#645=UNCERTAINTY_MEASURE_WITH_UNIT(LENGTH_MEASURE(0.01),#649,
'DISTANCE_ACCURACY_VALUE',
'Maximum model space distance between geometric entities at asserted c
onnectivities');
#646=UNCERTAINTY_MEASURE_WITH_UNIT(LENGTH_MEASURE(0.01),#649,
'DISTANCE_ACCURACY_VALUE',
'Maximum model space distance between geometric entities at asserted c
onnectivities');
#647=(
GEOMETRIC_REPRESENTATION_CONTEXT(3)
GLOBAL_UNCERTAINTY_ASSIGNED_CONTEXT((#645))
GLOBAL_UNIT_ASSIGNED_CONTEXT((#649,#651,#652))
REPRESENTATION_CONTEXT('','3D')
);
#648=(
GEOMETRIC_REPRESENTATION_CONTEXT(3)
GLOBAL_UNCERTAINTY_ASSIGNED_CONTEXT((#646))
GLOBAL_UNIT_ASSIGNED_CONTEXT((#649,#651,#652))
REPRESENTATION_CONTEXT('','3D')
);
#649=(
LENGTH_UNIT()
NAMED_UNIT(*)
SI_UNIT(.MILLI.,.METRE.)
);
#650=(
LENGTH_UNIT()
NAMED_UNIT(*)
SI_UNIT($,.METRE.)
);
#651=(
NAMED_UNIT(*)
PLANE_ANGLE_UNIT()
SI_UNIT($,.RADIAN.)
);
#652=(
NAMED_UNIT(*)
SI_UNIT($,.STERADIAN.)
SOLID_ANGLE_UNIT()
);
#653=SHAPE_DEFINITION_REPRESENTATION(#654,#655);
#654=PRODUCT_DEFINITION_SHAPE('',$,#657);
#655=SHAPE_REPRESENTATION('',(#405),#647);
#656=PRODUCT_DEFINITION_CONTEXT('part definition',#661,'design');
#657=PRODUCT_DEFINITION('2026-08-02-23-54-28-841','My simple macropad',
#658,#656);
#658=PRODUCT_DEFINITION_FORMATION('',$,#663);
#659=PRODUCT_RELATED_PRODUCT_CATEGORY('My simple macropad',
'My simple macropad',(#663));
#660=APPLICATION_PROTOCOL_DEFINITION('international standard',
'automotive_design',2009,#661);
#661=APPLICATION_CONTEXT(
'Core Data for Automotive Mechanical Design Process');
#662=PRODUCT_CONTEXT('part definition',#661,'mechanical');
#663=PRODUCT('2026-08-02-23-54-28-841','My simple macropad',$,(#662));
#664=PRESENTATION_STYLE_ASSIGNMENT((#665));
#665=SURFACE_STYLE_USAGE(.BOTH.,#666);
#666=SURFACE_SIDE_STYLE('',(#667));
#667=SURFACE_STYLE_FILL_AREA(#668);
#668=FILL_AREA_STYLE('Steel - Satin',(#669));
#669=FILL_AREA_STYLE_COLOUR('Steel - Satin',#670);
#670=COLOUR_RGB('Steel - Satin',0.627450980392157,0.627450980392157,0.627450980392157);
ENDSEC;
END-ISO-10303-21;
